<svg width="306" height="38" viewBox="0 0 306 38" fill="none" xmlns="http://www.w3.org/2000/svg">
    <g clip-path="url(#3y2algm0fa)" fill-rule="evenodd" clip-rule="evenodd" fill="#fff">
        <path d="M274.327 23.447v-.653a1.963 1.963 0 0 0 1.401-.58c.364-.393.626-.867.762-1.382.14-.48.214-.978.221-1.477a3.916 3.916 0 0 0-.299-1.578 2.454 2.454 0 0 0-.781-1.092 2.124 2.124 0 0 0-1.208-.385h-.096v-.63h.022a5.42 5.42 0 0 1 1.866.317c.496.178.943.468 1.304.848.355.341.617.765.763 1.232.178.473.27.973.271 1.478a3.871 3.871 0 0 1-.345 1.627c-.204.47-.519.884-.918 1.21a3.92 3.92 0 0 1-1.379.752 6.392 6.392 0 0 1-1.584.313zm0-7.777v.63c-.36.001-.713.096-1.024.275a2.019 2.019 0 0 0-.745.745 4.828 4.828 0 0 0-.616 2.592c.007.542.131 1.077.363 1.568.167.402.45.747.813.992.333.222.725.34 1.126.34h.101v.653h-.124a5.27 5.27 0 0 1-1.769-.313 3.435 3.435 0 0 1-1.621-1.137 3.413 3.413 0 0 1-.712-2.266.253.253 0 0 0 .027-.14c.005-.473.087-.941.244-1.388.174-.462.432-.889.762-1.26a3.451 3.451 0 0 1 1.3-.906 4.57 4.57 0 0 1 1.893-.362l-.018-.023zm-19.997 7.777v-.653a2.045 2.045 0 0 0 1.424-.58c.368-.39.63-.866.762-1.382.122-.484.188-.98.198-1.477a4.49 4.49 0 0 0-.271-1.578 2.717 2.717 0 0 0-.809-1.092 2.058 2.058 0 0 0-1.208-.385h-.096v-.63h.059a5.301 5.301 0 0 1 1.838.317c.484.17.924.445 1.286.805.361.36.636.796.804 1.275.169.475.251.975.244 1.478a3.797 3.797 0 0 1-.322 1.627 3.36 3.36 0 0 1-.919 1.21c-.403.34-.872.595-1.378.752a6.337 6.337 0 0 1-1.622.313h.01zm9.922-1.84h.244c.065.328.238.626.491.847.292.23.656.35 1.029.34.336.014.664-.098.919-.313a1.127 1.127 0 0 0 0-1.6 3.511 3.511 0 0 0-1.102-.656 4.178 4.178 0 0 1-1.011-.558 2.069 2.069 0 0 1-.611-.702 2.122 2.122 0 0 1-.221-.993c-.005-.398.097-.79.294-1.137.184-.36.476-.657.837-.848.45-.215.946-.324 1.447-.317.325.002.649.05.96.145.267.07.517.194.735.363a4.76 4.76 0 0 1-.17.534c-.051.195-.124.363-.175.558h-.17a1.36 1.36 0 0 0-.459-.68 1.253 1.253 0 0 0-.809-.267c-.808 0-1.203.362-1.203 1.092 0 .412.321.775.96 1.092l.808.385c.506.205.942.55 1.254.993.213.378.323.804.317 1.237.005.35-.088.696-.271.997a2.127 2.127 0 0 1-.661.747 3.039 3.039 0 0 1-.919.454c-.352.093-.715.14-1.079.14a3.5 3.5 0 0 1-1.746-.453c.134-.46.239-.927.312-1.4zm-9.922-5.937v.63a2.132 2.132 0 0 0-1.017.282 2.1 2.1 0 0 0-.752.733 5.115 5.115 0 0 0-.588 2.597c-.005.533.103 1.06.317 1.55.184.398.473.74.836.992.328.217.713.335 1.107.34h.097v.653h-.124a5.46 5.46 0 0 1-1.764-.313 3.67 3.67 0 0 1-1.622-1.137 3.55 3.55 0 0 1-.717-2.266.254.254 0 0 0 .028-.14 4.22 4.22 0 0 1 .271-1.388c.173-.456.421-.882.735-1.26.365-.399.82-.71 1.328-.906a4.438 4.438 0 0 1 1.865-.362v-.005zm-8.729 5.502v-1.89c.565-.172.859-.657.887-1.455a1.678 1.678 0 0 0-.198-.874.838.838 0 0 0-.459-.408.773.773 0 0 1-.22-.05v-.63h.243c.39-.013.78.028 1.158.122.272.103.516.268.712.48a1.496 1.496 0 0 1 .459 1.165 1.805 1.805 0 0 1-.537 1.36 2.793 2.793 0 0 1-1.181.607c.248.43.492.82.712 1.133.221.313.492.78.887 1.36.395.58.638 1.02.785 1.237a7.323 7.323 0 0 0-.983-.073 7.975 7.975 0 0 0-1.033.073c-.198-.367-.46-.825-.763-1.332a13.6 13.6 0 0 0-.459-.825h-.01zm0-5.307v.63a2.696 2.696 0 0 0-.491-.027h-.368v2.91h.244c.209.009.419-.023.615-.096v1.89c-.073-.145-.174-.29-.22-.39-.175-.313-.368-.63-.565-.943h-.074v3.49a5.692 5.692 0 0 0-.836-.073c-.28.005-.559.029-.836.073v-7.464h2.531zm-55.727 7.364v-.702c1.203-.313 1.814-1.36 1.814-3.15 0-1.042-.22-1.813-.684-2.23a2.406 2.406 0 0 0-1.13-.58v-.702h.317a3.45 3.45 0 0 1 1.622.385c.527.255.964.661 1.254 1.165.317.58.476 1.23.459 1.89a4.62 4.62 0 0 1-.496 2.034 3.113 3.113 0 0 1-1.378 1.41 3.965 3.965 0 0 1-1.769.48h-.009zm5.793.027v-7.391h4.203c-.023.122-.05.267-.096.485 0 .122.046.267.073.453a16.363 16.363 0 0 0-2.164-.15h-.367v2.303h1.424c.355.012.71-.02 1.057-.096v.313a.595.595 0 0 0-.028.218c.033.149.05.3.051.453a6.521 6.521 0 0 0-1.328-.123h-1.153v2.765c.853 0 1.706-.048 2.554-.145a4.606 4.606 0 0 0-.096.507c.035.136.059.274.073.413l-4.203-.005zm6.266-7.391.836.072c.107-.008.214-.008.321 0 .171-.027.342-.044.515-.05v6.617c.712 0 1.548-.05 2.531-.145-.028.118-.073.29-.101.48-.028.19.05.268.073.454h-4.175v-7.428zm9.973 5.742h.22c.071.326.243.622.492.847.294.229.659.35 1.033.34.336.017.666-.095.919-.313a1 1 0 0 0 .368-.802 1.1 1.1 0 0 0-.345-.798 3.333 3.333 0 0 0-1.102-.652 4.75 4.75 0 0 1-1.011-.562 2.151 2.151 0 0 1-.616-.702 2.175 2.175 0 0 1-.192-.993 2.237 2.237 0 0 1 .271-1.137 1.9 1.9 0 0 1 .859-.848c.441-.218.93-.327 1.424-.317.325.002.649.05.96.145.273.077.529.201.758.367-.067.174-.124.35-.17.53-.074.195-.124.363-.198.558h-.147a1.565 1.565 0 0 0-.459-.68c-.22-.18-.5-.275-.786-.267-.808 0-1.226.367-1.226 1.092 0 .412.321.775.96 1.092l.808.39a2.78 2.78 0 0 1 1.255.992c.213.377.322.802.317 1.233 0 .346-.083.688-.244.997a2.54 2.54 0 0 1-.689.747c-.278.201-.589.355-.919.454a4.06 4.06 0 0 1-1.056.145 3.638 3.638 0 0 1-1.769-.453c.136-.454.241-.916.317-1.383l-.032-.022zm6.339 1.65v-7.392h4.222c0 .122-.069.267-.096.485.032.15.056.3.073.453a16.494 16.494 0 0 0-2.159-.15h-.349v2.303h1.428c.355.012.71-.02 1.057-.096-.003.106-.02.212-.05.313a.72.72 0 0 1 0 .218c0 .122.045.294.073.453a6.515 6.515 0 0 0-1.328-.123h-1.18v2.765c.853 0 1.706-.049 2.554-.145-.046.19-.069.362-.097.507-.027.145.051.268.074.413l-4.222-.005zm5.871-3.49a4.69 4.69 0 0 1 .244-1.428c.146-.485.397-.933.735-1.314a3.8 3.8 0 0 1 1.405-.965 5.998 5.998 0 0 1 2.136-.39 5.326 5.326 0 0 1 2.674.653c-.08.19-.144.385-.193.584a4.587 4.587 0 0 0-.124.53h-.147a2.186 2.186 0 0 0-.983-.847 2.994 2.994 0 0 0-1.176-.267 2.36 2.36 0 0 0-1.107.244 2.44 2.44 0 0 0-.859.68c-.258.325-.45.696-.565 1.092-.13.474-.205.96-.225 1.45a3.66 3.66 0 0 0 .321 1.6c.209.427.526.793.919 1.065.384.238.824.372 1.277.39a3.85 3.85 0 0 0 1.351-.34v-2.542c.277.036.556.051.836.045.279.005.559-.01.836-.045v3.004a9.59 9.59 0 0 1-2.949.485 5.66 5.66 0 0 1-1.548-.195 4.085 4.085 0 0 1-1.379-.607 3.22 3.22 0 0 1-1.065-1.17 3.68 3.68 0 0 1-.395-1.721l-.019.009zm9.826.725v-4.627c.267.047.538.07.809.072.28 0 .56-.025.836-.072v4.165c-.007.366.026.732.096 1.092.039.263.123.517.248.752.172.26.409.474.688.618.279.145.591.216.907.207.329.016.657-.043.96-.172a1.76 1.76 0 0 0 .689-.558c.215-.32.35-.684.395-1.065.072-.457.104-.92.096-1.382v-3.657a.943.943 0 0 1 .221.023h.193a.608.608 0 0 1 .225 0c.096 0 .17-.023.243-.023v3.947a6.495 6.495 0 0 1-.17 1.65 2.025 2.025 0 0 1-.615 1.114c-.208.178-.43.34-.662.485a3.438 3.438 0 0 1-.785.29 4.41 4.41 0 0 1-1.034.096 3.708 3.708 0 0 1-2.651-.87 2.964 2.964 0 0 1-.689-2.085zm-44.068-4.627v.702a6.145 6.145 0 0 0-.689-.05h-1.13v6.11h1.033c.266.005.531-.029.786-.1v.702a2.858 2.858 0 0 1-.492.027h-2.949v-7.391h3.441zm-13.515 7.586v-.657a1.958 1.958 0 0 0 1.401-.58c.366-.391.628-.866.763-1.382.14-.48.214-.978.22-1.477a3.914 3.914 0 0 0-.294-1.578 2.427 2.427 0 0 0-.785-1.087 2.02 2.02 0 0 0-1.204-.39h-.101v-.63h.027a5.438 5.438 0 0 1 1.866.317c.495.18.942.47 1.304.848a3.3 3.3 0 0 1 .786 1.237c.16.477.244.975.248 1.477a4.325 4.325 0 0 1-.322 1.623 3.432 3.432 0 0 1-.919 1.21 3.875 3.875 0 0 1-1.378.752 6.552 6.552 0 0 1-1.612.317zm0-7.78v.63a2.08 2.08 0 0 0-1.022.276c-.31.18-.568.435-.747.743a4.893 4.893 0 0 0-.611 2.592c.001.535.119 1.064.345 1.55.163.402.445.748.808.992.334.223.728.341 1.13.34h.097v.657h-.12a5.25 5.25 0 0 1-1.768-.317 3.527 3.527 0 0 1-1.622-1.137 3.4 3.4 0 0 1-.712-2.266.295.295 0 0 0 .023-.14c.003-.474.095-.943.271-1.383.162-.483.426-.926.776-1.3.349-.373.775-.668 1.25-.866a4.567 4.567 0 0 1 1.888-.363l.014-.009zm-18.715 5.378v-.675h1.006l-.983-2.52-.023.073v-2.112l.023-.045c.073 0 .124.023.197.023h.221c.139 0 .279-.008.418-.023l3.091 7.523c-.119 0-.294-.028-.514-.028a3.066 3.066 0 0 1-.492-.022c-.152.023-.305.03-.459.022-.152.021-.306.03-.459.027a46.83 46.83 0 0 0-.763-2.265l-1.263.022zm5.788 2.244v-7.428h1.107c.322.34.689.752 1.107 1.187.418.435.809.907 1.254 1.36.446.453.832.875 1.227 1.31.395.435.762.824 1.13 1.237v-5.094c.046 0 .124.023.197.023a.505.505 0 0 1 .221.027.486.486 0 0 1 .22-.027c.097 0 .17-.023.221-.023v7.464l-.919-.023c-1.226-1.337-2.164-2.352-2.756-3.032-.593-.68-1.351-1.427-2.136-2.23v5.248c-.074 0-.147-.027-.244-.027a.68.68 0 0 1-.248-.022.463.463 0 0 1-.197.022c-.078.027-.152.027-.184.027zm-5.788-7.478v2.107l-1.011 2.452h1.011v.675h-1.305c-.046.118-.119.363-.266.748-.147.385-.248.657-.322.875a6.059 6.059 0 0 0-.197.63c-.046 0-.147-.028-.267-.028a.893.893 0 0 1-.271-.022.678.678 0 0 1-.248.022.815.815 0 0 1-.243.028l3.119-7.491v.004zm-49.205 7.636v-.657a2.055 2.055 0 0 0 1.425-.58c.366-.391.628-.866.762-1.382a6.52 6.52 0 0 0 .198-1.477 4.398 4.398 0 0 0-.271-1.578 2.66 2.66 0 0 0-.814-1.087 2.034 2.034 0 0 0-1.198-.39h-.102v-.63h.051a5.39 5.39 0 0 1 1.837.317c.503.175.957.466 1.324.848.348.348.61.771.762 1.237.173.473.257.974.248 1.477a3.839 3.839 0 0 1-.321 1.623c-.205.47-.52.887-.919 1.214a3.804 3.804 0 0 1-1.378.748 6.319 6.319 0 0 1-1.594.317h-.01zm9.505-.122c.198-1.088.395-2.302.593-3.626.197-1.323.39-2.592.537-3.852.078 0 .175.023.248.023.074 0 .17.027.221.05.15-.039.304-.063.459-.073.565 1.21 1.401 2.91 2.531 5.112.244-.453.46-.906.689-1.332.23-.426.46-.825.616-1.165.156-.34.367-.748.611-1.232l.666-1.383a3.1 3.1 0 0 1 .487.073c.152-.032.305-.057.459-.073.097.803.17 1.478.221 1.985.05.508.124 1.07.197 1.677.074.607.17 1.187.244 1.79.073.603.17 1.287.294 2.012a5.34 5.34 0 0 0-.919-.072 5.76 5.76 0 0 0-.919.072 11.121 11.121 0 0 0-.073-1.237c-.028-.408-.051-.775-.101-1.065-.051-.29-.074-.752-.12-1.31-.046-.557-.124-1.042-.174-1.454a194.372 194.372 0 0 0-2.43 4.985h-.418c-.124-.29-.345-.73-.639-1.31-.294-.58-.519-1.042-.666-1.332-.147-.29-.345-.703-.565-1.165-.221-.462-.418-.82-.538-1.088a39.349 39.349 0 0 0-.22 1.718c-.069.652-.124 1.287-.175 1.844-.05.558-.073 1.02-.073 1.405a1.102 1.102 0 0 0-.248-.023 1.768 1.768 0 0 0-.267-.05c-.17.04-.344.064-.519.073l-.009.023zm11.025-.073v-7.391h4.204a4.18 4.18 0 0 0-.074.485c.017.152.041.303.074.453a16.93 16.93 0 0 0-2.187-.145h-.345v2.302h1.424c.355.01.71-.023 1.057-.1 0 .123 0 .218-.051.313-.05.095-.023.15-.023.222 0 .073.051.29.074.453a6.522 6.522 0 0 0-1.328-.122h-1.153v2.764c.846 0 1.691-.048 2.532-.145-.028.19-.051.363-.074.508-.023.145.046.267.074.412l-4.204-.009zm8.035-3.394-2.237-3.997c.395.023.712.05.96.072l.983-.072 1.378 2.642 1.644-2.642c.079 0 .175.023.272.023a.69.69 0 0 1 .271.027.924.924 0 0 1 .294-.027c.124 0 .225-.023.271-.023l-2.334 3.272a281.738 281.738 0 0 1 2.297 4.192c-.175-.023-.492-.023-.919-.073-.459.05-.785.05-.978.073l-1.429-2.787c-.538.824-.919 1.382-1.13 1.722-.211.34-.391.68-.588 1.042-.051 0-.147-.027-.271-.027a.726.726 0 0 1-.244-.023.93.93 0 0 1-.294.023c-.098.02-.198.03-.298.027.248-.317.615-.847 1.13-1.6.514-.752.919-1.332 1.254-1.844h-.032zm5.871-3.997c.174.023.459.023.813.072.367-.05.638-.05.808-.072v7.464a5.195 5.195 0 0 0-.859-.073c-.256 0-.511.025-.762.073v-7.464zm3.675 3.974a4.202 4.202 0 0 1 .762-2.57 3.64 3.64 0 0 1 1.695-1.259 5.734 5.734 0 0 1 1.838-.34 5.19 5.19 0 0 1 1.447.195c.323.063.634.177.919.34-.097.29-.175.675-.271 1.115h-.147a2.634 2.634 0 0 0-.836-.73 2.08 2.08 0 0 0-.983-.267c-.474 0-.936.143-1.323.412a2.572 2.572 0 0 0-.919 1.142 4.341 4.341 0 0 0-.322 1.79 4.023 4.023 0 0 0 .294 1.6c.174.453.483.843.887 1.12.431.273.934.415 1.447.407a3.128 3.128 0 0 0 1.966-.797l.147.05-.248.942a4.402 4.402 0 0 1-2.187.453 4.887 4.887 0 0 1-1.718-.29 4.48 4.48 0 0 1-1.323-.775 3.594 3.594 0 0 1-.813-1.164 3.545 3.545 0 0 1-.294-1.383l-.018.01zm-96.01-3.974c.169.023.458.023.808.072.367-.05.638-.05.813-.072v7.464a4.996 4.996 0 0 0-.86-.073c-.255 0-.51.025-.762.073v-7.464zm57.922-.195v.63a2.137 2.137 0 0 0-1.017.285c-.31.178-.568.431-.751.735a5.099 5.099 0 0 0-.588 2.592 3.68 3.68 0 0 0 .317 1.55c.174.405.465.752.836.997.328.215.713.332 1.107.335h.096v.657h-.156a5.493 5.493 0 0 1-1.768-.317 3.67 3.67 0 0 1-1.622-1.137 3.593 3.593 0 0 1-.712-2.266.29.29 0 0 0 .028-.145 4.3 4.3 0 0 1 .266-1.383c.162-.463.413-.89.74-1.26a3.415 3.415 0 0 1 1.327-.906 4.365 4.365 0 0 1 1.865-.367h.032zm-53.623 7.623v-7.428h1.098c.317.34.684.752 1.102 1.187.418.435.836.907 1.277 1.36.441.453.837.87 1.231 1.305.396.435.759.825 1.13 1.237v-5.089c.047 0 .12.023.221.023a.464.464 0 0 1 .198.027.464.464 0 0 1 .22-.027c.097 0 .17-.023.244-.023v7.464l-.92-.023c-1.226-1.332-2.163-2.352-2.755-3.032-.593-.68-1.351-1.427-2.141-2.23v5.248c-.074 0-.147-.027-.244-.027a.636.636 0 0 1-.243-.022.464.464 0 0 1-.198.022c-.073 0-.147.027-.197.027h-.023zm9.165-1.7h.202c.067.329.239.627.491.852.293.226.657.345 1.03.335.325.016.644-.097.886-.312a1.008 1.008 0 0 0 .367-.798 1.051 1.051 0 0 0-.321-.802 3.602 3.602 0 0 0-1.103-.652 4.373 4.373 0 0 1-1.006-.558 2.13 2.13 0 0 1-.615-.702 2.148 2.148 0 0 1-.22-.997c-.006-.398.095-.79.293-1.138.183-.36.475-.657.836-.847.45-.216.946-.324 1.447-.317.326 0 .65.05.96.15.268.07.518.193.735.362-.046.18-.103.357-.17.53-.05.195-.124.367-.174.557h-.17a1.394 1.394 0 0 0-.46-.68 1.266 1.266 0 0 0-.813-.262c-.808 0-1.203.362-1.203 1.087 0 .413.321.775.96 1.092l.808.39c.507.205.942.55 1.255.993.214.377.323.804.316 1.237a1.91 1.91 0 0 1-.266.992c-.16.298-.388.556-.666.753-.278.2-.589.354-.919.453a4.19 4.19 0 0 1-1.08.145 3.548 3.548 0 0 1-1.745-.453c.137-.454.244-.916.322-1.383l.023-.027zm7.758 1.7V16.64c-.691-.008-1.382.05-2.062.172a.832.832 0 0 1 .027-.245v-.453a.964.964 0 0 1-.027-.267h5.673c-.023.172-.046.34-.073.512-.028.172.05.313.073.453a16.156 16.156 0 0 0-1.989-.172v6.652c-.096 0-.243-.027-.418-.027-.153.008-.307 0-.46-.022a1.53 1.53 0 0 1-.367.022c-.174 0-.294.027-.395.027h.019zm5.628-7.442c.17.023.46.023.808.073.345-.05.639-.05.814-.073v7.464a5.194 5.194 0 0 0-.86-.072c-.255 0-.51.024-.762.072v-7.464zm5.673 7.441V16.64c-.691-.008-1.382.05-2.062.172a.993.993 0 0 1 .023-.245v-.453a1.16 1.16 0 0 1-.023-.267h5.65c-.003.17-.02.34-.05.507a3 3 0 0 1 .05.454 15.864 15.864 0 0 0-1.966-.173v6.657c-.101 0-.244-.027-.418-.027-.154.008-.308 0-.46-.022a1.53 1.53 0 0 1-.367.022c-.175 0-.322.027-.395.027h.018zm5.577-2.81v-4.617c.269.047.54.071.813.072.279-.001.557-.025.832-.072v4.17c-.005.366.029.732.1 1.091.055.446.276.855.622 1.146.346.291.79.444 1.244.427.315.012.63-.047.919-.172.278-.117.516-.308.689-.553.225-.316.36-.685.39-1.07a7.46 7.46 0 0 0 .101-1.36v-3.66a.903.903 0 0 1 .22.022c.097 0 .175 0 .198.027a.465.465 0 0 1 .22-.027c.097 0 .198-.023.244-.023v3.952a6.45 6.45 0 0 1-.17 1.645c-.076.428-.292.82-.615 1.115-.2.188-.422.35-.662.485-.24.13-.496.227-.762.29a4.727 4.727 0 0 1-1.057.1 3.707 3.707 0 0 1-2.65-.875 2.956 2.956 0 0 1-.69-2.08l.014-.032zm10.612 2.81V16.64c-.692-.008-1.382.05-2.063.172 0-.072.023-.145.023-.245s.028-.145.028-.194a2.227 2.227 0 0 1-.028-.24c0-.1-.023-.195-.023-.268h5.674c0 .172-.046.34-.074.512-.028.172.051.313.074.453a16.078 16.078 0 0 0-1.99-.172v6.634c-.096 0-.243-.027-.418-.027-.153.008-.307 0-.459-.022a1.53 1.53 0 0 1-.367.022c-.157.027-.28.027-.377.027zM295.426 21.051v-.68h1.011l-.983-2.515-.028.073v-2.112l.028-.05c.073 0 .119.023.197.023h.216c.248 0 .395-.023.423-.023l3.068 7.527c-.124 0-.294-.027-.514-.027a3.077 3.077 0 0 1-.492-.022c-.152.022-.305.03-.459.022a3.08 3.08 0 0 1-.459.027c-.221-.752-.492-1.504-.758-2.265l-1.25.022zm5.724-5.184c.294.023.565.045.813.072.114-.017.229-.026.345-.027.193 0 .367-.045.487-.045v6.616c.739 0 1.575-.05 2.558-.145a2.131 2.131 0 0 0-.101.48c.028.123.051.268.074.454h-4.176v-7.405zm-21.223 3.974a4.037 4.037 0 0 1 .739-2.57 3.772 3.772 0 0 1 1.691-1.26 5.882 5.882 0 0 1 1.869-.339 5 5 0 0 1 1.424.195c.325.057.636.172.919.34-.073.29-.17.675-.271 1.11h-.124a2.693 2.693 0 0 0-.859-.725 2.028 2.028 0 0 0-.983-.267 2.321 2.321 0 0 0-1.328.412c-.413.283-.733.68-.918 1.142a4.403 4.403 0 0 0-.345 1.79 4.023 4.023 0 0 0 .294 1.6c.177.459.499.85.919 1.115.428.28.933.424 1.447.412.355-.007.706-.08 1.034-.218.343-.13.655-.327.918-.58l.17.046-.271.947a4.288 4.288 0 0 1-2.159.453 4.958 4.958 0 0 1-1.745-.29c-.484-.17-.93-.43-1.314-.766a3.55 3.55 0 0 1-.836-1.16 3.876 3.876 0 0 1-.271-1.382v-.005zm15.499-4.024v2.107l-1.006 2.447h1.006v.68h-1.3c-.05.123-.124.363-.271.753-.147.39-.243.652-.317.874-.08.206-.146.416-.197.63-.051 0-.147-.027-.271-.027a.94.94 0 0 1-.272-.023.678.678 0 0 1-.248.023.739.739 0 0 1-.216.027l3.092-7.49zm-6.656.05c.174.023.459.023.813.072.367-.05.638-.05.808-.072v7.464a4.979 4.979 0 0 0-.859-.073c-.256 0-.511.025-.762.073v-7.464zM185.023 31.356v-.517h.749l-.749-1.867v-1.55a.276.276 0 0 1 .147.027h.151c.108 0 .216-.01.322-.027l2.297 5.606a1.582 1.582 0 0 0-.395-.027c-.117.006-.234-.001-.349-.023-.108.022-.217.03-.326.023a1.228 1.228 0 0 0-.35.027 21.593 21.593 0 0 0-.574-1.672h-.923zm3.675-3.862c.225.028.423.028.625.05.075-.002.15-.01.225-.022.147 0 .271-.027.372-.027v4.916c.546 0 1.171-.05 1.892-.122-.022.1-.05.222-.073.372.03.103.047.21.051.317h-3.092v-5.484zm-3.675 0v1.55l-.749 1.813h.749v.517h-.974a5.188 5.188 0 0 0-.198.539c-.101.272-.197.494-.248.666-.05.172-.101.295-.151.453-.023-.027-.097-.027-.198-.027a.554.554 0 0 1-.202-.023c-.023.023-.096.023-.17.023a.328.328 0 0 0-.174.027l2.296-5.556.019.018zm-13.984 5.633v-.494a1.36 1.36 0 0 0 1.048-.416 2.66 2.66 0 0 0 .574-1.034c.095-.36.145-.732.147-1.105a3.232 3.232 0 0 0-.198-1.156 2.051 2.051 0 0 0-.597-.811 1.427 1.427 0 0 0-.896-.295h-.078v-.444h.028a3.41 3.41 0 0 1 1.378.245c.355.126.677.328.944.591.267.263.472.581.599.932.131.354.2.728.203 1.105.013.416-.073.83-.253 1.206a2.41 2.41 0 0 1-.671.906c-.308.24-.652.43-1.02.567a4.87 4.87 0 0 1-1.199.222l-.009-.019zm3.588-2.682a3.183 3.183 0 0 1 .551-1.89 2.9 2.9 0 0 1 1.268-.96c.444-.15.909-.233 1.378-.245.364-.004.726.045 1.075.144.238.054.464.146.671.272-.051.195-.124.494-.198.812h-.101a1.855 1.855 0 0 0-.62-.54 1.65 1.65 0 0 0-.749-.199 1.75 1.75 0 0 0-.973.295c-.308.218-.55.516-.699.86-.166.424-.25.874-.248 1.328-.008.404.068.806.225 1.179.131.34.365.634.671.838a1.9 1.9 0 0 0 1.07.294c.266-.003.528-.052.777-.145.248-.111.475-.265.67-.453l.124.05-.197.689a3.072 3.072 0 0 1-1.594.344 3.628 3.628 0 0 1-1.296-.222 2.724 2.724 0 0 1-.973-.566 2.363 2.363 0 0 1-.598-.884 2.452 2.452 0 0 1-.225-1.01l-.009.009zm6.004-2.95c.129 0 .326.027.602.05.276.022.459-.05.597-.05v5.533a4.903 4.903 0 0 0-.625-.05c-.192.003-.384.02-.574.05v-5.534zm-9.592-.123v.453c-.266 0-.527.068-.758.198-.231.13-.424.316-.56.541a3.662 3.662 0 0 0-.46 1.917c.012.397.096.788.249 1.155.14.296.355.55.624.74.241.165.529.25.823.244h.073v.494h-.096a4.325 4.325 0 0 1-1.3-.222 2.78 2.78 0 0 1-1.218-.861 2.76 2.76 0 0 1-.523-1.672.155.155 0 0 0 0-.096 2.714 2.714 0 0 1 .202-1.033c.117-.344.303-.661.546-.933a2.49 2.49 0 0 1 .97-.69 3.873 3.873 0 0 1 1.378-.271l.05.036zm-12.83 5.629v-.54c.896-.222 1.346-1.01 1.346-2.338a2.149 2.149 0 0 0-.524-1.645 1.618 1.618 0 0 0-.822-.417v-.544h.225c.425 0 .845.1 1.222.295.384.193.703.492.919.86.237.43.358.912.349 1.401a3.245 3.245 0 0 1-.349 1.5 2.688 2.688 0 0 1-1.048 1.06c-.411.206-.859.33-1.318.368zm5.93-1.228h.147c.067.241.197.462.377.638.223.164.494.25.772.245a.998.998 0 0 0 .671-.222.777.777 0 0 0 .248-.612.777.777 0 0 0-.221-.566 2.989 2.989 0 0 0-.822-.494 2.502 2.502 0 0 1-.749-.417 1.494 1.494 0 0 1-.634-1.278c.005-.29.074-.574.202-.834.149-.264.375-.479.648-.616a2.4 2.4 0 0 1 1.07-.245c.238.006.473.047.699.122.208.051.403.144.574.272a7.098 7.098 0 0 0-.152.39c-.05.145-.073.272-.124.394h-.124a1.077 1.077 0 0 0-.321-.489 1.056 1.056 0 0 0-.602-.2c-.597 0-.896.273-.896.812 0 .299.225.566.698.811l.62.294c.378.145.699.404.919.74.154.277.232.59.225.906a1.483 1.483 0 0 1-.67 1.278 2.546 2.546 0 0 1-.726.344 2.824 2.824 0 0 1-.772.1 2.527 2.527 0 0 1-1.318-.345c.123-.34.21-.693.261-1.051v.023zm-5.93-4.256v.544a1.635 1.635 0 0 0-.501-.077h-.845v4.532h.749c.201.003.402-.021.597-.073v.54h-2.541v-5.484l2.541.018zm-6.262 3.839v-.517h.749l-.749-1.867-.027.05v-1.55l.027-.05a.282.282 0 0 1 .147.027h.152c.108-.002.215-.01.322-.027l2.269 5.606a1.515 1.515 0 0 0-.372-.027 1.868 1.868 0 0 1-.377-.023c-.106.022-.214.03-.321.023-.11-.009-.22 0-.327.027-.174-.567-.372-1.106-.574-1.672h-.919zm0-3.884v1.55l-.744 1.812h.744v.517h-.969l-.202.544a9.26 9.26 0 0 0-.221.662 2.337 2.337 0 0 0-.151.453.466.466 0 0 0-.198-.027.466.466 0 0 1-.202-.023.383.383 0 0 1-.174.023.387.387 0 0 0-.198.027l2.297-5.556.018.018zm-5.512 5.506v-.54c.896-.221 1.346-1.01 1.346-2.333a2.158 2.158 0 0 0-.524-1.65 1.631 1.631 0 0 0-.822-.417V27.5h.225a2.58 2.58 0 0 1 1.217.295c.386.189.706.487.919.856.229.431.339.914.322 1.4a3.009 3.009 0 0 1-.345 1.505 2.512 2.512 0 0 1-1.024 1.056 3.637 3.637 0 0 1-1.314.367zm0-5.479v.54a1.674 1.674 0 0 0-.524-.078h-.822v4.532h.744c.203.003.406-.021.602-.073v.54h-2.545V27.5h2.545zm-8.48 3.952v-1.4a.98.98 0 0 0 .516-.414.96.96 0 0 0 .131-.643 1.49 1.49 0 0 0-.124-.661.724.724 0 0 0-.376-.3 1.396 1.396 0 0 1-.147-.049v-.453h.17c.294-.017.589.016.872.095.196.08.374.198.524.344a1.095 1.095 0 0 1 .326.861 1.26 1.26 0 0 1-.376 1.006 2.11 2.11 0 0 1-.896.454c.202.317.377.589.524.834.147.244.399.589.67 1.005.271.417.46.74.574.907a7.265 7.265 0 0 0-.721-.05c-.225 0-.459.023-.749.05-.174-.272-.349-.59-.569-.983l-.349-.617v.014zm3.261-3.93c.124 0 .326.023.597.05.271.028.46-.05.602-.05v5.53a4.903 4.903 0 0 0-.625-.05c-.192.003-.384.02-.574.05v-5.53zm-3.261 0v.454a1.7 1.7 0 0 0-.349-.023h-.299v2.14h.197a1.23 1.23 0 0 0 .46-.078v1.437c-.051-.095-.129-.195-.175-.295a16.473 16.473 0 0 0-.427-.689h-.046v2.583a5.72 5.72 0 0 0-.602-.05 6.17 6.17 0 0 0-.62.05v-5.528h1.861zm-5.513 3.857v-.516h.749l-.726-1.867-.023.05v-1.55l.023-.05a.305.305 0 0 1 .152.027h.151c.108-.004.215-.013.322-.027l2.265 5.605a1.488 1.488 0 0 0-.373-.027 1.82 1.82 0 0 1-.372-.022c-.107.022-.217.03-.326.022a1.017 1.017 0 0 0-.321.027c-.175-.566-.377-1.105-.575-1.672h-.946zm0-3.884v1.55l-.749 1.813h.749v.517h-.974c-.023.072-.096.272-.197.544a9.92 9.92 0 0 0-.225.661 2.592 2.592 0 0 0-.147.453.47.47 0 0 0-.203-.027.463.463 0 0 1-.197-.023.41.41 0 0 1-.175.023.414.414 0 0 0-.202.027l2.32-5.556v.018zm-5.512 5.507v-.54c.895-.222 1.345-1.01 1.345-2.333a2.154 2.154 0 0 0-.519-1.65 1.648 1.648 0 0 0-.826-.417v-.54h.225c.425-.003.845.098 1.222.295.391.181.713.481.918.857.249.425.37.91.349 1.4a2.99 2.99 0 0 1-.349 1.505 2.518 2.518 0 0 1-1.02 1.055 3.653 3.653 0 0 1-1.336.345l-.009.023zm0-5.48v.54a1.626 1.626 0 0 0-.52-.077h-.822v4.532h.744c.202.003.403-.021.598-.073v.54h-2.545v-5.484l2.545.023zm-13.419 5.606v-.494a1.356 1.356 0 0 0 1.047-.416c.266-.299.46-.652.57-1.034.097-.36.147-.732.152-1.105.01-.397-.067-.791-.225-1.156a1.822 1.822 0 0 0-.57-.811 1.428 1.428 0 0 0-.919-.295H113.493v-.444h.023c.471-.014.941.07 1.378.245.368.126.7.337.969.616.259.255.455.565.574.907.13.356.197.731.198 1.11.015.414-.07.825-.248 1.2-.15.35-.38.66-.671.907-.309.24-.655.431-1.024.567a4.81 4.81 0 0 1-1.195.222l.014-.019zm4.038-5.628c.225.023.423.023.597.05.084-.001.167-.01.248-.027.152 0 .276-.023.372-.023v4.912c.552 0 1.172-.05 1.898-.122-.028.1-.051.222-.079.372.033.102.05.21.051.317h-3.087v-5.479zm4.185 0c.124 0 .321.023.597.05.276.027.459-.05.597-.05v5.529a4.754 4.754 0 0 0-.62-.05c-.192.003-.384.02-.574.05v-5.529zm-8.223-.15v.476c-.266 0-.527.068-.758.198-.231.13-.424.316-.56.541a3.662 3.662 0 0 0-.46 1.917c.007.397.091.79.248 1.155.14.296.356.55.625.74.241.165.529.25.822.244h.074v.494h-.101a4.308 4.308 0 0 1-1.296-.222 2.794 2.794 0 0 1-1.222-.861 2.795 2.795 0 0 1-.519-1.672.146.146 0 0 0 .023-.096c.001-.353.068-.704.198-1.033.118-.344.306-.662.551-.933.263-.303.595-.539.969-.69a3.882 3.882 0 0 1 1.378-.271l.028.014zm-20.057 5.629v-.54c.896-.221 1.346-1.01 1.346-2.333a2.245 2.245 0 0 0-.5-1.65 1.787 1.787 0 0 0-.846-.417V27.5h.226c.424-.006.843.096 1.217.295.39.181.713.481.919.856.237.429.358.912.349 1.4a3.262 3.262 0 0 1-.35 1.505c-.235.446-.6.814-1.047 1.056-.41.208-.858.333-1.318.367h.004zm7.249-2.266a11.8 11.8 0 0 0-.459-.788c-.161-.25-.299-.562-.46-.884-.16-.322-.348-.612-.459-.884-.11-.272-.275-.49-.372-.662.248.023.496.05.744.05.234-.003.467-.02.699-.05.122.185.222.383.298.59.124.244.225.453.349.711.11.191.21.388.299.59.081.177.173.35.276.516.125-.162.234-.335.326-.517.124-.222.22-.453.321-.639s.198-.417.322-.711c.124-.295.225-.453.253-.54.174.023.298.05.372.05.141-.01.282-.026.422-.05a4.862 4.862 0 0 1-.349.59c-.158.31-.333.613-.524.906l-.459.811c-.124.222-.248.453-.4.716v2.506c-.1 0-.2-.008-.298-.027a1.26 1.26 0 0 1-.326-.023 5.249 5.249 0 0 1-.598.05v-2.31h.023zm5.931 1.033h.152c.062.243.19.464.372.64.223.163.494.249.772.244.244.006.483-.072.675-.222a.854.854 0 0 0 .023-1.178 2.811 2.811 0 0 0-.85-.494 2.748 2.748 0 0 1-.721-.417 1.408 1.408 0 0 1-.46-.517 1.506 1.506 0 0 1-.174-.761c.003-.289.071-.573.197-.834a1.57 1.57 0 0 1 .648-.616c.331-.166.699-.25 1.07-.245a2.1 2.1 0 0 1 .676.122c.206.052.4.144.569.272-.046.123-.096.245-.147.39-.05.145-.073.272-.124.394h-.087a1.277 1.277 0 0 0-.299-.49 1.037 1.037 0 0 0-.62-.208c-.602 0-.919.272-.919.812 0 .299.226.566.699.81l.624.3c.366.14.672.4.869.734.174.27.262.586.252.906a1.786 1.786 0 0 1-.174.739 1.762 1.762 0 0 1-.501.54c-.211.153-.447.269-.698.344a2.796 2.796 0 0 1-.772.1 2.528 2.528 0 0 1-1.318-.345c.122-.329.211-.669.266-1.015v-.005zm-13.18-4.25v.539a1.634 1.634 0 0 0-.5-.077h-.846v4.532h.75c.2.003.402-.021.596-.073v.54h-2.54v-5.457l2.54-.005zm-6.28 3.86v-.516h.75l-.722-1.867-.027.05v-1.55l.027-.05a.285.285 0 0 1 .147.027h.152c.108-.002.215-.01.321-.027l2.27 5.606A1.518 1.518 0 0 0 89.72 33a1.862 1.862 0 0 1-.377-.023c-.107.022-.217.03-.326.023a1.018 1.018 0 0 0-.322.027c-.174-.567-.372-1.106-.574-1.672h-.946zm0-3.883v1.55l-.744 1.812h.745v.517h-.97l-.202.544c-.096.267-.174.49-.22.662-.046.172-.101.294-.152.453a.465.465 0 0 0-.197-.027.465.465 0 0 1-.203-.023.396.396 0 0 1-.174.023c-.074 0-.147 0-.175.027l2.297-5.556-.004.018zm-5.512 5.506v-.54c.919-.221 1.346-1.005 1.346-2.333a2.161 2.161 0 0 0-.524-1.65 1.633 1.633 0 0 0-.822-.417V27.5h.22c.426-.004.846.098 1.223.295.384.19.704.488.918.856.239.43.36.915.35 1.405a3.274 3.274 0 0 1-.377 1.5c-.224.446-.58.814-1.02 1.056-.41.204-.856.329-1.314.367zm0-5.479v.54a1.675 1.675 0 0 0-.524-.078h-.822v4.532h.744c.203.004.406-.02.602-.073v.54h-2.545V27.5h2.545zM73.2 31.451v-1.405a.98.98 0 0 0 .516-.413.959.959 0 0 0 .132-.643 1.5 1.5 0 0 0-.124-.662.737.737 0 0 0-.354-.294c-.046-.027-.12-.027-.17-.055v-.453h.193c.294-.016.59.016.873.095.195.081.373.198.524.345a1.115 1.115 0 0 1 .349.86 1.29 1.29 0 0 1-.4 1.011c-.255.224-.563.38-.896.454.203.317.377.589.547.834.17.244.377.589.648 1.005.27.417.46.74.574.907-.24-.03-.48-.046-.721-.05-.225 0-.46.023-.749.05-.174-.272-.35-.59-.57-.983l-.349-.612-.023.009zm3.262-3.934c.124 0 .322.023.597.05.276.027.46-.05.597-.05v5.529a4.767 4.767 0 0 0-.62-.05c-.192.004-.384.02-.574.05v-5.529zm-26.01 4.251h.174c.043.25.175.476.372.639.212.167.478.254.75.245a.996.996 0 0 0 .67-.222.794.794 0 0 0 .276-.612.709.709 0 0 0-.248-.567 2.342 2.342 0 0 0-.823-.49 3.55 3.55 0 0 1-.749-.42 1.49 1.49 0 0 1-.459-.513 1.886 1.886 0 0 1-.147-.765 1.68 1.68 0 0 1 .198-.834c.14-.263.358-.478.624-.617.333-.163.7-.246 1.07-.244.246.005.489.046.722.122.2.052.388.145.551.272-.05.122-.078.245-.129.394a3.19 3.19 0 0 0-.123.39h-.124c-.07-.191-.19-.36-.35-.49a.927.927 0 0 0-.597-.194c-.597 0-.896.267-.896.806 0 .3.248.567.722.816l.597.294c.378.142.7.4.919.735.17.271.256.586.248.906 0 .259-.069.513-.198.739a1.764 1.764 0 0 1-.5.539c-.21.155-.447.272-.699.344a2.964 2.964 0 0 1-.795.1 2.456 2.456 0 0 1-1.295-.344c.099-.34.174-.684.225-1.034l.014.005zm22.748-4.25v.452a1.693 1.693 0 0 0-.349-.022h-.303v2.143h.202c.157.004.313-.022.46-.077v1.437c-.051-.1-.13-.2-.18-.3-.124-.221-.248-.453-.395-.688h-.078v2.583a5.578 5.578 0 0 0-.597-.05 6.04 6.04 0 0 0-.62.05v-5.529h1.86zm-18.59 5.478V27.5h3.114a2.98 2.98 0 0 0-.074.367.986.986 0 0 1 .05.322 11.543 11.543 0 0 0-1.593-.1h-.276v1.722h1.047c.27.006.537-.02.8-.077 0 .077-.028.145-.028.222v.15c0 .122 0 .217.05.34a5.94 5.94 0 0 0-.996-.073h-.85v2.04a16.18 16.18 0 0 0 1.893-.123c-.018.125-.042.25-.074.372.033.102.05.21.05.317l-3.114.018zm3.79-2.579a3.28 3.28 0 0 1 .174-1.083 2.34 2.34 0 0 1 .546-.96 2.519 2.519 0 0 1 1.048-.712 4.652 4.652 0 0 1 1.57-.294 4.046 4.046 0 0 1 2.008.457c-.06.148-.11.3-.151.454-.05.172-.074.294-.101.367h-.097a1.64 1.64 0 0 0-.749-.612 2.163 2.163 0 0 0-.873-.195 1.691 1.691 0 0 0-.799.172 1.91 1.91 0 0 0-.648.512 2.67 2.67 0 0 0-.422.811c-.1.354-.158.717-.175 1.084 0 .405.087.807.253 1.178.16.31.389.58.67.788.287.172.612.273.947.295.356-.017.704-.11 1.02-.272v-1.863c.198.04.4.056.602.05.208.008.416-.01.62-.05v2.235a7.22 7.22 0 0 1-2.192.371 4.702 4.702 0 0 1-1.148-.15 3.16 3.16 0 0 1-1.043-.453 2.489 2.489 0 0 1-.767-.87c-.187-.4-.28-.837-.276-1.278l-.018.018zm6.724.494V27.5c.226.023.423.05.598.05.174 0 .4-.027.624-.05v3.095a3.83 3.83 0 0 0 .074.789c.026.207.093.407.197.589a1.393 1.393 0 0 0 1.171.612c.25.008.496-.042.722-.145.198-.098.37-.24.5-.417.158-.238.26-.507.3-.789.05-.333.075-.67.073-1.006v-2.719c.051 0 .103.007.151.023h.322a.554.554 0 0 1 .175-.023v2.923c.005.413-.037.825-.124 1.228-.059.313-.22.598-.46.811-.152.14-.318.265-.496.372-.18.1-.373.174-.574.218-.254.054-.513.08-.772.076a2.67 2.67 0 0 1-1.966-.666 2.16 2.16 0 0 1-.515-1.558zM26.077 12.08a5.697 5.697 0 0 0-.216 1.644 5.83 5.83 0 0 0 .556 2.049c1.231 2.383 2.223 3.86 2.848 6.552.46 1.858.676 2.96.58 4.863a10.08 10.08 0 0 1-.194 1.55 22.348 22.348 0 0 0-1.787-6.458 24.95 24.95 0 0 0-1.713-3.408c-.58-1.001-2.274-3.29-2.463-3.575a3.325 3.325 0 0 1-.606-1.74c.046-.74.34-1.097.965-1.646 1.57-1.26 3.215-2.429 4.52-3.575.01.004-2.288 2.837-2.49 3.743zM22.802 27.47a5.757 5.757 0 0 1-.505 2.86 3.209 3.209 0 0 1-.823 1.146 3.452 3.452 0 0 1-1.038.475c-.941.213-1.548-.167-2.007-.217a2.79 2.79 0 0 0-1.498.195c-.386.213-.868.643-1.57.593a2.074 2.074 0 0 1-1.232-.593c.006.307.104.606.28.86.176.253.424.45.712.567.342.118.71.135 1.062.05.243-.072.459-.335.845-.38.386-.046.51-.073.583.067.12.218-.487.263-.46.526.024.403 1.498 0 2.004 0 .041.005.08.024.107.056a.162.162 0 0 1 .04.112c.023.235-.34.403-.584.548a1.8 1.8 0 0 1-1.203.168 5.61 5.61 0 0 0 2.076.38 5.259 5.259 0 0 0 2.32-.81 6.696 6.696 0 0 0 1.787-2.647 6.85 6.85 0 0 0 .312-4.242 7.057 7.057 0 0 0-1.254-2.837 7.384 7.384 0 0 0-3.386-2.597 4.075 4.075 0 0 0-2.508-.19 2.476 2.476 0 0 0-1.332.93 2.13 2.13 0 0 0-.363.833c-.165.693.607 2.288.46 3.05a4.84 4.84 0 0 1-.529 1.432c-.413.811-.482.784-.873 1.618-.15.248-.27.512-.358.788a1.651 1.651 0 0 1 1.135-.739c.328-.035.66.013.965.141.176.077.333.192.459.335.108.096.198.21.266.336.16-.018.321.015.46.095.09.054.158.137.193.236.051.132.093.269.124.407a1.02 1.02 0 0 0-.074-.666.951.951 0 0 0-.266-.38.698.698 0 0 1-.46-.576.516.516 0 0 1 .29-.498 1.268 1.268 0 0 0-.046-.123c0-.045-.05-.14-.05-.118a.878.878 0 0 1-.58.358c-.192.05-.459-.14-.771-.167a1.015 1.015 0 0 0-.533.027 3.37 3.37 0 0 1 1.231-1.813c.38-.242.797-.42 1.236-.525.46-.118.721-.073 1.157-.168a2.11 2.11 0 0 0 .653-.19 2.31 2.31 0 0 0 .918-.975 2.261 2.261 0 0 1-1.57.784 3.436 3.436 0 0 1-1.861-.716c-.335-.285-1.084-1.187-1.015-1.858.017-.219.088-.43.206-.617.119-.186.281-.342.474-.452a2.26 2.26 0 0 1 1.713-.168c.457.115.902.274 1.328.476.516.272.994.609 1.424 1.001a6.452 6.452 0 0 1 1.258 1.668c.367.663.595 1.392.671 2.143z"/>
        <path d="M41.863 10.41c-.17-3.145-.579-5.53-1.061-6.48a4.665 4.665 0 0 0-2.32-2.362A10.33 10.33 0 0 0 35.34.852c-2.582-.167-4.976-.19-7.295-.358a72.566 72.566 0 0 0-4.516-.118 53.818 53.818 0 0 0-2.706 0c-1.015.028-1.474.028-2.756.028-1.061 0-2.995.045-4.135.045-1.254 0-6.206 0-8.503.643-.59.148-1.16.372-1.69.667a4.471 4.471 0 0 0-1.089.974 6.517 6.517 0 0 0-1.378 3.435C.978 8.574 1.005 9.123.955 9.72c0 .163-.097 1.785-.193 2.95-.096 1.645-.142 4.196-.12 6.104.046 3.172 0 4.505.046 6.245.051 1.047.17 1.785.221 3.38.046.957.193 2.434.363 3.553.112.629.265 1.25.46 1.859.084.278.191.55.32.81.342.628.81 1.18 1.379 1.618a5.458 5.458 0 0 0 2.026.907c1.213.248 2.44.423 3.675.526 1.378.095 2.922.072 3.404.095 3.046.05 5.825.05 8.241.072 1.061 0 5.214-.023 9.032-.213 3.817-.19 6.256-.217 7.589-.62 1.332-.404 1.47-.5 2.172-1.052a4.674 4.674 0 0 0 1.305-1.903c.33-.868.548-1.772.653-2.692.096-1.242.215-1.93.312-3.15.073-.806.124-1.572.147-2.356.069-2.17.069-4.6.069-6.675.023-2.384-.023-5.815-.193-8.77zM4.612 6.784A5.55 5.55 0 0 1 5.53 3.97c.136-.192.29-.371.46-.535a3.944 3.944 0 0 1 1.116-.707 4.187 4.187 0 0 1 1.906-.213 4.433 4.433 0 0 1 1.645.621c.505.286 2.61 1.88 4.64 3.43a51.118 51.118 0 0 1 4.295 3.744c-.988.118-3.675.358-5.604.498-1.787.123-3.675-.022-5.65.145a6.639 6.639 0 0 0-1.714.454 6.23 6.23 0 0 0-1.838 1.287c-.073-.789-.05-1.052-.073-1.836-.124-1.522-.101-2.451-.101-4.092v.018zm14.52 29.738c-1.74 0-3.674-.069-5.218-.74a9.205 9.205 0 0 1-4.18-3.978 29.59 29.59 0 0 1-2.247-5.506c-.675-2.144-1.015-3.263-1.474-5.17-.24-1.098-.46-2.026-.625-3.146a27.078 27.078 0 0 1 5.191.046c.906.048 1.81.145 2.706.29.918.163 1.957.52 2.053 1.762a2.613 2.613 0 0 1-.386 1.528 7.155 7.155 0 0 1 1.81-.789 5.745 5.745 0 0 1 2.444-.095 7.259 7.259 0 0 1 2.655 1.001 7.94 7.94 0 0 1 2.343 1.786 8.995 8.995 0 0 1 2.32 5.891c0 1.455-.142 3.648-1.98 5.438-1.622 1.618-4.736 1.663-5.411 1.663v.019zm19.423-22.569c-.26 2.48-.688 4.94-1.281 7.364a46.812 46.812 0 0 1-1.447 5.149c-.487 1.31-1.26 3.67-2.127 5.243-1.328 2.384-2.683 2.977-3.381 3.335a10.973 10.973 0 0 1-4.401 1.12c1.066-1.664 1.548-2.334 2.08-3.98a9.08 9.08 0 0 0 .17-4.286 12.399 12.399 0 0 0-2.512-5.221 16.727 16.727 0 0 0-7.08-4.84 26.774 26.774 0 0 0-6.183-1.237c-1.888-.168-2.636-.24-4.253-.286-1.305-.022-2.706-.145-3.262.118-.253.093-.46.278-.579.517l-.63-1.192a.895.895 0 0 1-.038-.659.909.909 0 0 1 .425-.51c.35-.205.714-.387 1.088-.544a.716.716 0 0 1 .437-.05c.108.001.212.043.29.118.096.073.748.598 1.015.811l1.929-1.382-2.297-.05c-.266 0-.51.123-.51-.045 0-.263.46-.358 1.282-.761a4.937 4.937 0 0 1 1.957-.476c1.304-.123 2.416.022 4.35-.073 1.838-.072 3.404-.358 3.574-.358-.277.43-.62.815-1.015 1.142-.891.884-1.52 1.097-2.632 1.79a19.161 19.161 0 0 0 5.434-2.31c.602-.336 1.714-1.075 2.78-1.791 3.454-2.311 5.797-4.41 8.48-6.435 2.099-1.595 4.635-2.38 6.592-.952 1.957 1.428 1.91 4.532 1.934 4.818.105 1.967.042 3.939-.189 5.895v.018z"/>
    </g>
    <defs>
        <clipPath id="3y2algm0fa">
            <path fill="#fff" transform="translate(.646 .36)" d="M0 0h304.707v37.486H0z"/>
        </clipPath>
    </defs>
</svg>
