<svg width="43" height="43" viewBox="0 0 43 43" fill="none" xmlns="http://www.w3.org/2000/svg">
    <g filter="url(#5hpgev007a)">
        <circle cx="21.5" cy="17.5" r="17.5" fill="#F7F7F7"/>
    </g>
    <path d="M11.564 16.142v-1.653h1.62c.172 0 .337-.07.459-.194a.668.668 0 0 0 0-.935.642.642 0 0 0-.458-.194h-1.62v-1.653a.668.668 0 0 0-.19-.468.641.641 0 0 0-.917 0 .668.668 0 0 0-.19.468v1.653h-1.62a.642.642 0 0 0-.458.194.668.668 0 0 0 0 .935.642.642 0 0 0 .458.194h1.62v1.653c0 .175.068.343.19.468a.641.641 0 0 0 .917 0 .668.668 0 0 0 .19-.468zM27.25 24.98c.813-.147 1.719-.592 1.97-1.434.076-.241.085-.519.085-.769v-.148c-.28.01-.56.01-.84.01-.038.823-.514 1.36-1.215 1.508v.834z" fill="#0F9676"/>
    <path d="M27.268 25v-1.76l-.019-.842v-1.185l.01-.824v-3.25l-.01-.843v-1.194l.01-.834v-1.194l-.01-.824V9.815h2.27c-.29.778-.579 1.546-.887 2.305 0 0-.15.232-.178.945v1.204l.01.833v3.241l-.02.824v1.213l.01.824v1.185l-.028.843v.027c.28 0 .551.01.832 0 0-3.324 0-6.657.009-9.981 0-.343.075-.704.187-1.028.29-.843.625-1.667.934-2.51.205-.564.084-.74-.514-.74H26.381v8.426c-1.01-.676-2.037-.75-3.11.028V9.73a.417.417 0 0 0-.421-.416h-.038a.417.417 0 0 0-.42.416V13.704c-1.009-.686-2.036-.704-3.082.037V9.713a.417.417 0 0 0-.42-.417h-.029a.417.417 0 0 0-.42.417v9.389c-1.018-.667-2.046-.722-3.13.037v-4.463a.42.42 0 0 0-.046-.185.289.289 0 0 0-.13-.148.411.411 0 0 0-.234-.075h-.01a.411.411 0 0 0-.233.075.27.27 0 0 0-.103.101.375.375 0 0 0-.075.223V24.944h7.893l.878.01h3.12l.897.046zm-8.79-.926h-3.12V22.76c1.037.704 2.065.723 3.12-.009v1.324zm-1.54-1.574c-.842.018-1.589-.694-1.589-1.546-.01-.852.71-1.565 1.56-1.565.85 0 1.579.722 1.57 1.565-.01.833-.701 1.527-1.542 1.546zm5.482 1.593h-3.092V17.36c1.018.704 2.046.74 3.092.01v6.722zm.019-8.445c-.047.778-.71 1.408-1.504 1.435-.897.028-1.616-.657-1.625-1.527 0-.852.7-1.537 1.578-1.537a1.523 1.523 0 0 1 1.55 1.63zm3.97 8.454h-3.092v-3.028c1.027.694 2.046.722 3.092-.028v3.056zm-1.579-3.315a1.532 1.532 0 0 1-1.541-1.565c.018-.842.7-1.5 1.56-1.5.868 0 1.578.695 1.569 1.546-.01.852-.71 1.519-1.588 1.519zM14.92 13.214c.131.01.383-.204.393-.333.01-.158-.178-.324-.365-.611-.205.277-.401.435-.401.583.01.13.233.361.373.361z" fill="#0F9676"/>
    <defs>
        <filter id="5hpgev007a" x="0" y="0" width="43" height="43" filterUnits="userSpaceOnUse" color-interpolation-filters="sRGB">
            <feFlood flood-opacity="0" result="BackgroundImageFix"/>
            <feColorMatrix in="SourceAlpha" values="0 0 0 0 0 0 0 0 0 0 0 0 0 0 0 0 0 0 127 0" result="hardAlpha"/>
            <feOffset dy="4"/>
            <feGaussianBlur stdDeviation="2"/>
            <feComposite in2="hardAlpha" operator="out"/>
            <feColorMatrix values="0 0 0 0 0 0 0 0 0 0 0 0 0 0 0 0 0 0 0.12 0"/>
            <feBlend in2="BackgroundImageFix" result="effect1_dropShadow_1134_56749"/>
            <feBlend in="SourceGraphic" in2="effect1_dropShadow_1134_56749" result="shape"/>
        </filter>
    </defs>
</svg>
