<svg width="20" height="22" viewBox="0 0 20 22" fill="none" xmlns="http://www.w3.org/2000/svg">
    <path fill-rule="evenodd" clip-rule="evenodd" d="M3 4a1 1 0 0 0-1 1v14a1 1 0 0 0 1 1h14a1 1 0 0 0 1-1V5a1 1 0 0 0-1-1H3zM0 5a3 3 0 0 1 3-3h14a3 3 0 0 1 3 3v14a3 3 0 0 1-3 3H3a3 3 0 0 1-3-3V5z" fill="#0F9676"/>
    <path fill-rule="evenodd" clip-rule="evenodd" d="M14 0a1 1 0 0 1 1 1v4a1 1 0 1 1-2 0V1a1 1 0 0 1 1-1zM6 0a1 1 0 0 1 1 1v4a1 1 0 0 1-2 0V1a1 1 0 0 1 1-1zM0 9a1 1 0 0 1 1-1h18a1 1 0 1 1 0 2H1a1 1 0 0 1-1-1z" fill="#0F9676"/>
</svg>
