<svg width="57" height="57" viewBox="0 0 57 57" fill="none" xmlns="http://www.w3.org/2000/svg">
    <circle cx="28.5" cy="28.5" r="28.5" fill="#FDEDE5"/>
    <path d="M43 18.514c-5.18-.54-10.391-.819-15.587-.819-3.08 0-6.16.164-9.24.491L15 18.514M23.555 16.862l.342-2.145c.249-1.555.436-2.717 3.064-2.717h4.076c2.629 0 2.831 1.228 3.064 2.734l.343 2.128M39.655 23.688l-1.011 16.484c-.171 2.57-.311 4.567-4.651 4.567h-9.987c-4.34 0-4.48-1.997-4.651-4.567l-1.011-16.484M26.402 35.738h5.18M25.111 29.188h7.778" stroke="#FF8329" stroke-width="2.5" stroke-linecap="round" stroke-linejoin="round"/>
</svg>
