<svg width="57" height="57" viewBox="10 10 57 57" fill="none" xmlns="http://www.w3.org/2000/svg">
    
    <path d="M27.222 13.387h-3.16C16.16 13.387 13 16.459 13 24.14v9.218c0 7.682 3.16 10.754 11.061 10.754h9.482c7.9 0 11.061-3.072 11.061-10.754v-3.073" stroke="#0f9676" stroke-width="2.5" stroke-linecap="round" stroke-linejoin="round"/>
    <path d="M35.184 14.953 22.732 27.059c-.474.461-.948 1.368-1.043 2.028l-.68 4.625c-.252 1.674.965 2.842 2.687 2.611l4.757-.66c.663-.092 1.596-.553 2.085-1.014L42.99 22.542c2.15-2.089 3.16-4.516 0-7.589-3.16-3.073-5.657-2.09-7.806 0z" stroke="#0f9676" stroke-width="2.5" stroke-miterlimit="10" stroke-linecap="round" stroke-linejoin="round"/>
    <path d="M33.398 16.684c1.06 3.671 4.014 6.544 7.807 7.59" stroke="#0f9676" stroke-width="2.5" stroke-miterlimit="10" stroke-linecap="round" stroke-linejoin="round"/>
</svg>
