<svg width="76" height="75" viewBox="0 0 76 75" fill="none" xmlns="http://www.w3.org/2000/svg">
    <g filter="url(#y4q6fhqana)">
        <ellipse cx="37.971" cy="34.407" rx="32.971" ry="32.407" fill="#FEFCFE"/>
    </g>
    <ellipse cx="37.826" cy="34.436" rx="22.826" ry="22.436" fill="#EDFAEA"/>
    <path d="M44.559 44.972c1.117-.204 2.363-.815 2.71-1.973.102-.331.115-.713.115-1.057v-.204c-.385.013-.77.013-1.156.013-.051 1.133-.706 1.872-1.67 2.075v1.146z" fill="#0F9676"/>
    <path d="M44.583 45v-2.419l-.026-1.159v-1.63l.013-1.132V34.19l-.013-1.159V31.39l.013-1.146v-1.642l-.013-1.133V24.12h3.121a116.17 116.17 0 0 1-1.22 3.17s-.206.319-.244 1.3v1.654l.013 1.146v4.456L46.2 36.98v1.668l.013 1.133v1.63l-.039 1.158v.038c.386 0 .758.013 1.144 0 0-4.57 0-9.154.012-13.724 0-.471.103-.968.257-1.413.398-1.159.86-2.292 1.285-3.45.282-.777.115-1.019-.707-1.019h-4.803v11.586c-1.387-.93-2.8-1.032-4.277.038V24.005a.573.573 0 0 0-.578-.572h-.052a.573.573 0 0 0-.578.573v5.462c-1.387-.942-2.8-.968-4.238.05V23.98a.573.573 0 0 0-.578-.573h-.038a.573.573 0 0 0-.578.573v12.91c-1.4-.917-2.813-.993-4.303.051V30.804a.576.576 0 0 0-.064-.254.397.397 0 0 0-.18-.204.565.565 0 0 0-.321-.102h-.013a.565.565 0 0 0-.321.102.37.37 0 0 0-.141.14.515.515 0 0 0-.103.306v14.132h10.853l1.207.012h4.29l1.233.064zm-12.086-1.273h-4.29v-1.808c1.426.968 2.839.993 4.29-.013v1.82zm-2.12-2.164c-1.155.025-2.182-.955-2.182-2.127-.013-1.171.976-2.151 2.144-2.151 1.17 0 2.17.993 2.158 2.151-.013 1.146-.963 2.101-2.12 2.127zm7.54 2.19h-4.251v-9.257c1.4.968 2.813 1.019 4.251.013v9.243zm.026-11.612c-.064 1.07-.976 1.935-2.068 1.974-1.233.038-2.222-.904-2.235-2.101 0-1.171.963-2.114 2.17-2.114a2.094 2.094 0 0 1 2.133 2.241zM43.4 43.765H39.15v-4.163c1.413.955 2.813.993 4.251-.038v4.201zm-2.17-4.558c-1.208-.013-2.132-.955-2.12-2.151.026-1.159.964-2.063 2.145-2.063 1.195 0 2.17.955 2.158 2.126-.013 1.172-.976 2.088-2.183 2.088zM27.604 28.795c.18.012.526-.28.539-.459.013-.216-.244-.445-.5-.84-.283.382-.553.599-.553.802.013.178.32.497.514.497z" fill="#0F9676"/>
    <defs>
        <filter id="y4q6fhqana" x="0" y="0" width="75.941" height="74.813" filterUnits="userSpaceOnUse" color-interpolation-filters="sRGB">
            <feFlood flood-opacity="0" result="BackgroundImageFix"/>
            <feColorMatrix in="SourceAlpha" values="0 0 0 0 0 0 0 0 0 0 0 0 0 0 0 0 0 0 127 0" result="hardAlpha"/>
            <feMorphology radius="1" operator="dilate" in="SourceAlpha" result="effect1_dropShadow_762_68563"/>
            <feOffset dy="3"/>
            <feGaussianBlur stdDeviation="2"/>
            <feComposite in2="hardAlpha" operator="out"/>
            <feColorMatrix values="0 0 0 0 0.827451 0 0 0 0 0.941176 0 0 0 0 0.8 0 0 0 1 0"/>
            <feBlend in2="BackgroundImageFix" result="effect1_dropShadow_762_68563"/>
            <feBlend in="SourceGraphic" in2="effect1_dropShadow_762_68563" result="shape"/>
        </filter>
    </defs>
</svg>
