<svg width="24" height="27" viewBox="0 0 24 27" fill="none" xmlns="http://www.w3.org/2000/svg">
    <path d="M1 22.164v-6.5h6M23 4.836v6.5h-6" stroke="#2B6255" stroke-width="2" stroke-linecap="round" stroke-linejoin="round"/>
    <path d="M3.51 10.247a9.83 9.83 0 0 1 2.505-4.035 8.776 8.776 0 0 1 3.993-2.222 8.332 8.332 0 0 1 4.487.144 8.883 8.883 0 0 1 3.865 2.473L23 11.331M1 15.664l4.64 4.723a8.883 8.883 0 0 0 3.865 2.474 8.331 8.331 0 0 0 4.487.143 8.776 8.776 0 0 0 3.992-2.222 9.83 9.83 0 0 0 2.506-4.035" stroke="#2B6255" stroke-width="2" stroke-linecap="round" stroke-linejoin="round"/>
</svg>
