<svg width="380" height="83" viewBox="0 0 380 83" fill="none" xmlns="http://www.w3.org/2000/svg">
    <g filter="url(#ax0veprfqa)">
        <rect x="51" y="6" width="325" height="65" rx="12" fill="#0F9676" fill-opacity=".8" shape-rendering="crispEdges"/>
    </g>
    <g filter="url(#6sf5011pyb)">
        <ellipse cx="41.971" cy="38.429" rx="37.971" ry="37.429" fill="#FEFCFE"/>
    </g>
    <ellipse cx="41.971" cy="38.428" rx="26.288" ry="25.912" fill="#E6F6F2"/>
    <g clip-path="url(#vksceax8kc)" stroke="#0F9676" stroke-width="2" stroke-linecap="round" stroke-linejoin="round">
        <path d="M54.223 49.75v-2.167a4.333 4.333 0 0 0-3.25-4.192M47.72 49.75v-2.167a4.333 4.333 0 0 0-4.333-4.333H34.72a4.333 4.333 0 0 0-4.333 4.333v2.167M46.637 30.39a4.334 4.334 0 0 1 0 8.396M39.056 38.917a4.333 4.333 0 1 0 0-8.667 4.333 4.333 0 0 0 0 8.667z"/>
    </g>
    <defs>
        <filter id="ax0veprfqa" x="47" y="6" width="333" height="73" filterUnits="userSpaceOnUse" color-interpolation-filters="sRGB">
            <feFlood flood-opacity="0" result="BackgroundImageFix"/>
            <feColorMatrix in="SourceAlpha" values="0 0 0 0 0 0 0 0 0 0 0 0 0 0 0 0 0 0 127 0" result="hardAlpha"/>
            <feOffset dy="4"/>
            <feGaussianBlur stdDeviation="2"/>
            <feComposite in2="hardAlpha" operator="out"/>
            <feColorMatrix values="0 0 0 0 0 0 0 0 0 0 0 0 0 0 0 0 0 0 0.25 0"/>
            <feBlend in2="BackgroundImageFix" result="effect1_dropShadow_1123_77546"/>
            <feBlend in="SourceGraphic" in2="effect1_dropShadow_1123_77546" result="shape"/>
        </filter>
        <filter id="6sf5011pyb" x="0" y="0" width="83.941" height="82.859" filterUnits="userSpaceOnUse" color-interpolation-filters="sRGB">
            <feFlood flood-opacity="0" result="BackgroundImageFix"/>
            <feColorMatrix in="SourceAlpha" values="0 0 0 0 0 0 0 0 0 0 0 0 0 0 0 0 0 0 127 0" result="hardAlpha"/>
            <feOffset dy="3"/>
            <feGaussianBlur stdDeviation="2"/>
            <feComposite in2="hardAlpha" operator="out"/>
            <feColorMatrix values="0 0 0 0 0.0588235 0 0 0 0 0.588235 0 0 0 0 0.462745 0 0 0 0.4 0"/>
            <feBlend in2="BackgroundImageFix" result="effect1_dropShadow_1123_77546"/>
            <feBlend in="SourceGraphic" in2="effect1_dropShadow_1123_77546" result="shape"/>
        </filter>
        <clipPath id="vksceax8kc">
            <path fill="#fff" transform="translate(29.305 27)" d="M0 0h26v26H0z"/>
        </clipPath>
    </defs>
</svg>
