<svg width="80" height="80" viewBox="0 0 80 80" fill="none" xmlns="http://www.w3.org/2000/svg">
    <circle cx="40" cy="40" r="40" fill="#EDFAEA"/>
    <path d="M32.496 56.024c-.778-.155-1.569-.251-2.323-.49-3.616-1.114-6.047-3.473-7.34-7.018-.048-.131-.096-.263-.156-.443H21.06a6.573 6.573 0 0 1-6.562-7.173c.288-3.245 3.042-5.807 6.383-5.927a23.206 23.206 0 0 1 1.58 0c.24 0 .36-.048.467-.288 1.521-3.532 4.192-5.544 8.011-6.059.156-.024.324-.167.432-.311a327.55 327.55 0 0 0 3.592-4.49c.204-.264.42-.372.754-.372 2.204.012 4.407.012 6.61 0 .324 0 .527.096.719.347 1.162 1.473 2.359 2.934 3.52 4.42.192.25.396.37.707.37 2.73.048 5.053 1.078 6.933 3.054a8.547 8.547 0 0 1 1.809 2.79c.155.42.359.539.79.539 3.245 0 5.82 2.012 6.574 5.125.048.204.096.395.156.599v1.724c-.036.072-.084.132-.096.204-.395 2.167-1.593 3.748-3.533 4.766-1.101.574-2.287.754-3.52.67-.06.144-.096.264-.144.383-1.317 3.665-3.832 6.06-7.556 7.161-.706.216-1.46.288-2.203.42H32.496zm7.017-2.957v.036c1.976 0 3.964.023 5.94-.012.754-.012 1.533-.06 2.275-.24 3.52-.85 6.023-3.868 6.143-7.496.084-2.395.036-4.79.036-7.185-.012-3.185-2.167-5.544-4.586-6.347-1.114-.37-2.264-.347-3.401-.323-.3 0-.491-.072-.683-.323-1.161-1.485-2.347-2.946-3.52-4.419-.216-.275-.443-.395-.803-.395-1.245.024-2.49.024-3.736 0-.395-.012-.634.132-.874.431-1.137 1.461-2.323 2.886-3.46 4.347-.216.275-.432.347-.767.36-.55.011-1.125.023-1.652.155-3.198.766-5.257 3.377-5.281 6.682-.012 2.095-.012 4.179 0 6.274.012.671.072 1.342.18 2 .634 3.509 3.891 6.359 7.448 6.455 2.239.047 4.49 0 6.741 0zM22.222 37.93c-1.832-.3-3.46.323-4.263 1.628-.779 1.258-.755 2.898.072 4.06.946 1.317 2.395 1.784 4.19 1.52v-7.208zm34.619 7.244c2.167.036 3.82-1.592 3.796-3.7-.024-2.096-1.856-3.76-3.796-3.544v7.244z" fill="#5DBE51"/>
    <path d="M46.529 56.506H32.447l-.048-.012c-.24-.048-.491-.096-.73-.132-.54-.096-1.102-.191-1.641-.36-3.724-1.137-6.299-3.604-7.652-7.316-.012-.047-.036-.084-.048-.131h-1.269c-2.024-.012-3.88-.827-5.221-2.3a6.993 6.993 0 0 1-1.808-5.388c.31-3.497 3.245-6.239 6.837-6.37.491-.025.994-.025 1.605 0h.012c1.58-3.677 4.394-5.808 8.37-6.335a.601.601 0 0 0 .144-.132 578.076 578.076 0 0 0 3.58-4.479c.311-.383.659-.562 1.138-.55 2.095.011 4.31.011 6.598 0 .467 0 .814.167 1.101.526.563.707 1.138 1.425 1.689 2.12.599.754 1.221 1.533 1.832 2.3.132.155.192.19.347.19 2.85.06 5.305 1.138 7.269 3.198.85.898 1.497 1.892 1.904 2.946.084.215.096.227.347.227h.012c3.46 0 6.215 2.156 7.03 5.497.035.131.071.263.095.395l.06.251v1.892l-.048.096c-.012.036-.036.06-.048.096 0 .012-.012.012-.012.024-.419 2.275-1.7 3.987-3.784 5.077-1.006.527-2.131.779-3.413.743-.012.012-.012.035-.023.047-1.366 3.808-4.012 6.311-7.88 7.46-.515.156-1.054.24-1.557.312-.227.036-.455.072-.682.12l-.024-.012zm-13.987-.958h13.891c.228-.036.455-.072.67-.108.504-.084.983-.156 1.438-.287 3.556-1.054 5.987-3.365 7.244-6.862.024-.084.06-.167.096-.251l.18-.467.359.024c1.257.072 2.323-.132 3.27-.623 1.843-.97 2.92-2.419 3.292-4.43a.625.625 0 0 1 .084-.24v-1.545l-.036-.132c-.036-.131-.072-.275-.108-.407-.706-2.898-3.101-4.766-6.095-4.766h-.012c-.634 0-1.006-.251-1.233-.838-.36-.946-.934-1.832-1.713-2.634-1.784-1.88-4.011-2.85-6.598-2.898-.455-.012-.778-.18-1.077-.551-.611-.767-1.222-1.545-1.833-2.3-.55-.694-1.125-1.412-1.688-2.119-.108-.131-.168-.155-.347-.167a611.65 611.65 0 0 1-6.61 0c-.18 0-.252.036-.383.191a391.792 391.792 0 0 1-3.593 4.49c-.132.156-.395.432-.742.48-3.677.49-6.18 2.37-7.628 5.771-.168.396-.467.587-.922.575a33.01 33.01 0 0 0-1.545 0c-3.113.12-5.652 2.48-5.916 5.497a6.067 6.067 0 0 0 1.57 4.67c1.16 1.27 2.765 1.976 4.514 1.988h1.951l.168.49c.036.096.06.192.096.276 1.245 3.413 3.616 5.676 7.03 6.73.49.156.993.24 1.532.335.227.024.467.06.694.108zm10.347-1.952H39.032v-.036c-.538 0-1.065 0-1.604.012-1.533.012-3.113.024-4.682-.024-3.76-.096-7.233-3.101-7.903-6.837a12.94 12.94 0 0 1-.192-2.072 275.008 275.008 0 0 1 0-6.287c.024-3.532 2.251-6.334 5.652-7.149.587-.143 1.21-.155 1.76-.167.228 0 .3-.048.396-.168.598-.766 1.209-1.533 1.808-2.275.539-.683 1.101-1.377 1.652-2.072.348-.443.73-.634 1.27-.61 1.185.023 2.395.023 3.712 0 .503-.013.862.167 1.185.574.551.707 1.126 1.413 1.677 2.096.61.754 1.233 1.544 1.844 2.323.084.108.132.132.3.132h.13c1.127-.012 2.276-.024 3.426.359 2.443.814 4.91 3.233 4.921 6.802 0 .526 0 1.053.012 1.592.012 1.844.024 3.736-.036 5.616-.131 3.844-2.742 7.041-6.514 7.94-.85.203-1.712.239-2.37.251-.875-.012-1.737 0-2.587 0zm-2.898-.97h1.221c1.39 0 2.826.012 4.24-.012.61-.012 1.412-.048 2.167-.227 3.34-.803 5.664-3.64 5.783-7.042.06-1.856.048-3.748.036-5.568 0-.527-.012-1.066-.012-1.593-.012-3.089-2.143-5.197-4.263-5.903-.994-.335-2.023-.323-3.113-.3h-.132c-.467 0-.79-.143-1.066-.502-.61-.779-1.233-1.557-1.844-2.311-.55-.683-1.125-1.401-1.676-2.108-.132-.168-.216-.215-.42-.204-1.328.024-2.562.024-3.76 0-.227 0-.335.048-.49.252-.551.694-1.114 1.4-1.665 2.084-.587.742-1.21 1.508-1.796 2.263-.36.455-.778.527-1.126.539-.527.012-1.065.023-1.556.143-2.97.707-4.898 3.15-4.922 6.215-.012 2.3-.012 4.359 0 6.263.012.659.072 1.305.18 1.916.598 3.305 3.664 5.963 6.98 6.06 1.546.035 3.126.035 4.647.023.695 0 1.39-.012 2.096-.012h.479l.012.024zm-18.669-6.945c-1.569 0-2.826-.611-3.676-1.784-.946-1.306-.982-3.15-.096-4.587.91-1.473 2.73-2.18 4.754-1.844l.407.06v8.023l-.407.06a7.16 7.16 0 0 1-.982.072zm.012-7.34c-1.293 0-2.383.526-2.97 1.472-.682 1.114-.658 2.527.06 3.52.743 1.03 1.856 1.486 3.317 1.378v-6.359c-.131-.012-.275-.012-.407-.012zm35.589 7.316h-.084l-.467-.012v-8.131l.42-.048c1.029-.12 2.095.228 2.921.958a4.121 4.121 0 0 1 1.401 3.054 4.13 4.13 0 0 1-1.197 2.981c-.779.767-1.845 1.198-2.994 1.198zm.395-7.257v6.275a3.192 3.192 0 0 0 1.916-.898c.599-.599.922-1.413.922-2.288a3.23 3.23 0 0 0-1.078-2.346 2.863 2.863 0 0 0-1.76-.743z" fill="#5DBE51"/>
    <path d="M30.83 39.897h-2.85v-2.85h2.85v2.85z" fill="#5DBE51"/>
    <path d="M31.308 40.378H27.5V36.57h3.808v3.808zm-2.85-.958h1.892v-1.892h-1.892v1.892zM50.037 39.909H47.2v-2.862h2.838v2.862z" fill="#5DBE51"/>
    <path d="M50.515 40.39h-3.796v-3.82h3.796v3.82zm-2.826-.958h1.868v-1.904h-1.88v1.904h.012zM27.98 46.01v-2.838h2.85v2.838h-2.85z" fill="#5DBE51"/>
    <path d="M31.296 46.491h-3.808v-3.796h3.808v3.796zm-2.838-.958h1.892v-1.88h-1.892v1.88zM50.05 43.188v2.825H47.2v-2.825h2.85z" fill="#5DBE51"/>
    <path d="M50.527 46.495h-3.808V42.71h3.808v3.784zm-2.85-.958h1.892v-1.868h-1.892v1.868z" fill="#5DBE51"/>
</svg>
