<svg width="80" height="80" viewBox="0 0 80 80" fill="none" xmlns="http://www.w3.org/2000/svg">
    <circle cx="40" cy="40" r="40" fill="#E6F6F2"/>
    <path d="M19.82 60.681c-.747-.24-1.47-.518-2.038-1.109a3.734 3.734 0 0 1-1.037-2.23c-.3-2.846-.566-5.691-.41-8.56.326-6.005 1.628-11.744 4.667-17.001 1.627-2.81 3.665-5.28 6.402-7.09 1.145-.759 2.339-1.434 3.75-1.519 2.41-.144 4.448 1.857 4.473 4.353.024 2.363 0 4.726 0 7.09v.59a6.98 6.98 0 0 0 2.073-1.64c.447-.518.832-1.097 1.182-1.687.157-.278.205-.64.205-.965.024-2.074 0-4.148.012-6.221.012-.953.663-1.7 1.616-1.881.82-.157 1.748.325 2.073 1.145.121.29.157.627.17.94.011 2.135-.013 4.28.023 6.415 0 .374.133.795.326 1.121.567.989 1.736 1.99 3.135 2.773v-.53c0-2.351-.012-4.69 0-7.042.024-2.483 2.025-4.449 4.437-4.352 1.217.048 2.29.59 3.303 1.206 2.701 1.64 4.726 3.942 6.402 6.57 2.364 3.714 3.75 7.814 4.534 12.13.18 1.013-.519 1.977-1.568 2.194-.988.205-1.977-.422-2.23-1.447-.253-1.012-.434-2.037-.7-3.038-.952-3.569-2.423-6.897-4.774-9.778-1.17-1.435-2.496-2.677-4.135-3.557-.085-.048-.17-.096-.254-.133-.916-.422-1.133-.289-1.133.724 0 8.476.012 16.94-.012 25.416 0 .627.241.989.735 1.278 1.17.687 2.46 1 3.762 1.278 2.183.47 4.4.627 6.704.687.132-1.326.277-2.628.374-3.943.084-1.12.614-1.844 1.603-2.061.82-.181 1.543.193 2.158 1.097v3.28c-.06.422-.156.831-.193 1.253-.108 1.206-.265 2.424-1.29 3.232-.53.422-1.193.675-1.796 1h-2.7c-.121-.024-.242-.072-.363-.084-1.483-.169-2.978-.277-4.436-.506-2.074-.338-4.112-.857-5.932-2.002-1.604-1-2.508-2.375-2.496-4.364.048-4.498.012-8.995.024-13.504 0-.458-.169-.663-.543-.868-.964-.53-1.94-1.085-2.845-1.712-.748-.53-1.423-1.182-2.134-1.785-1.315 1.568-2.99 2.677-4.835 3.545-.362.169-.47.374-.47.76.012 4.63.012 9.26.012 13.89 0 .795-.181 1.53-.591 2.193-.88 1.435-2.267 2.195-3.774 2.761-2.242.856-4.606 1.242-6.98 1.471-.652.06-1.303.133-1.954.193-.856.024-1.688.024-2.532.024zm.808-3.918c.072.012.12.036.157.024 2.134-.072 4.268-.217 6.354-.651 1.35-.277 2.688-.603 3.894-1.302.494-.29.735-.651.735-1.278-.024-8.5-.012-17-.012-25.5v-.386c-.024-.53-.265-.712-.747-.495-.494.217-.989.458-1.435.76-2.279 1.531-3.943 3.617-5.293 5.968-2.46 4.28-3.557 8.97-3.967 13.841-.253 3.002-.084 5.993.314 9.019z" fill="#0F9676"/>
    <path d="M62.441 60.979h-2.809l-.036-.012a1.513 1.513 0 0 1-.12-.036c-.073-.024-.145-.036-.206-.048-.47-.049-.964-.097-1.434-.145a53.076 53.076 0 0 1-3.026-.362c-1.749-.29-4.016-.772-6.041-2.037-1.797-1.122-2.653-2.641-2.628-4.618.024-2.64.024-5.33.024-7.934V40.23c0-.313-.073-.434-.386-.603-1.037-.579-1.978-1.11-2.87-1.724a14.992 14.992 0 0 1-1.507-1.242c-.145-.12-.277-.253-.422-.374-1.205 1.35-2.749 2.46-4.738 3.4-.241.109-.302.205-.302.495.013 3.026.013 6.1.013 9.067v4.822c0 .868-.218 1.664-.64 2.351-1 1.616-2.616 2.388-3.918 2.894-1.977.76-4.16 1.218-7.065 1.495-.446.036-.893.084-1.339.133l-.65.06h-2.557l-.048-.012c-.784-.265-1.543-.543-2.158-1.194a4.122 4.122 0 0 1-1.122-2.399c-.301-2.882-.566-5.703-.41-8.609.374-6.703 1.905-12.298 4.703-17.133 1.82-3.146 3.954-5.497 6.498-7.197 1.146-.76 2.412-1.483 3.895-1.568 1.217-.072 2.387.362 3.291 1.206a4.82 4.82 0 0 1 1.507 3.448c.013 1.64.013 3.304.013 4.92v2.242a7.04 7.04 0 0 0 1.555-1.326c.386-.446.76-.989 1.145-1.64.109-.18.157-.458.157-.82.012-1.11.012-2.242.012-3.34 0-.94 0-1.917.012-2.881.012-1.098.76-1.966 1.857-2.183.976-.18 2.037.398 2.411 1.327.12.289.181.65.181 1.049v2.604c0 1.242 0 2.532.012 3.81 0 .313.109.675.277.976.47.808 1.387 1.676 2.569 2.4v-2.146c0-1.604-.012-3.268.012-4.895a4.714 4.714 0 0 1 1.459-3.4A4.446 4.446 0 0 1 50.89 23c1.302.048 2.436.639 3.448 1.254 2.472 1.507 4.606 3.689 6.499 6.667 2.206 3.473 3.714 7.475 4.57 12.238.216 1.17-.58 2.279-1.809 2.544-1.157.241-2.29-.495-2.58-1.664a73.537 73.537 0 0 1-.314-1.375c-.12-.554-.24-1.12-.386-1.663-1.024-3.859-2.568-7.03-4.714-9.67-1.278-1.58-2.604-2.713-4.039-3.484l-.036-.025c-.072-.036-.133-.072-.205-.108-.482-.23-.603-.205-.627-.193-.012.012-.084.108-.084.651v5.088c0 6.668 0 13.552-.012 20.328 0 .494.156.772.59 1.025 1.134.663 2.388.964 3.666 1.242 2.266.482 4.57.627 6.366.675.036-.314.06-.615.096-.928.097-.893.181-1.821.253-2.725.097-1.278.736-2.086 1.845-2.327.651-.145 1.616-.048 2.472 1.23l.048.072v3.412l-.072.398c-.049.29-.097.566-.12.844-.11 1.121-.23 2.52-1.4 3.448-.385.314-.844.53-1.278.748-.192.096-.385.193-.566.289l-.06-.012zm-2.736-.603h2.592c.169-.096.35-.18.518-.265.422-.205.832-.41 1.17-.675.892-.712 1.049-1.749 1.17-3.027.023-.301.084-.602.132-.892.024-.12.048-.241.06-.362v-3.159c-.53-.759-1.109-1.048-1.784-.904-.832.193-1.302.784-1.375 1.785-.072.916-.169 1.844-.253 2.737-.036.398-.084.795-.12 1.205l-.025.278-.277-.012c-1.869-.049-4.316-.17-6.764-.7-1.278-.277-2.64-.603-3.846-1.314-.615-.362-.88-.832-.88-1.543.012-6.776.012-13.66.012-20.328v-5.088c0-.579.06-.965.362-1.158.301-.193.699-.072 1.193.157.085.036.157.084.241.12l.037.013c1.507.808 2.893 2.001 4.232 3.629 2.206 2.713 3.785 5.944 4.834 9.899.145.566.278 1.133.398 1.688.097.446.193.904.302 1.35.217.856 1.037 1.398 1.88 1.218.905-.193 1.496-1.001 1.339-1.845-.856-4.678-2.315-8.609-4.485-12.02-1.845-2.907-3.907-5.017-6.306-6.475-.953-.58-1.99-1.122-3.159-1.17-1.061-.048-2.062.338-2.845 1.085a4.149 4.149 0 0 0-1.278 2.978c-.013 1.628-.013 3.292-.013 4.883v3.195l-.446-.253c-1.507-.844-2.664-1.869-3.255-2.893a2.725 2.725 0 0 1-.362-1.266c-.012-1.266-.012-2.569-.012-3.81v-2.605c0-.313-.048-.602-.144-.82-.278-.675-1.037-1.097-1.737-.964-.807.157-1.362.796-1.362 1.591-.012.953-.012 1.93-.012 2.87 0 1.097 0 2.23-.012 3.34 0 .47-.084.844-.241 1.121-.398.7-.796 1.266-1.206 1.736a7.26 7.26 0 0 1-2.17 1.712l-.446.23V32.391c0-1.616.012-3.28-.012-4.92a4.217 4.217 0 0 0-1.315-3.013 3.813 3.813 0 0 0-2.845-1.05c-1.338.073-2.52.748-3.593 1.472-2.46 1.64-4.521 3.93-6.306 6.993-2.76 4.798-4.28 10.32-4.642 16.915-.156 2.858.097 5.655.398 8.513.085.783.398 1.47.953 2.05.506.53 1.17.783 1.869 1.024h2.447l.603-.06c.446-.048.892-.085 1.338-.133 2.858-.265 4.98-.723 6.909-1.459 1.29-.494 2.725-1.193 3.617-2.64.374-.603.555-1.266.555-2.038v-4.823c0-2.966 0-6.04-.013-9.066 0-.519.193-.82.64-1.037 2.013-.953 3.568-2.086 4.738-3.473l.193-.229.229.193c.229.193.446.386.663.579.482.434.953.844 1.459 1.194.868.602 1.784 1.12 2.81 1.7.421.229.698.518.698 1.133a425.541 425.541 0 0 0 0 5.558c0 2.605 0 5.293-.024 7.946-.024 1.784.724 3.086 2.351 4.099 1.93 1.206 4.124 1.676 5.812 1.953a50.43 50.43 0 0 0 2.99.362l1.435.145c.108.012.205.036.301.06a.59.59 0 0 1 .085.036zm-38.92-3.28a.538.538 0 0 1-.157-.023c-.012 0-.036-.013-.048-.013l-.217-.036-.024-.217c-.446-3.448-.543-6.33-.314-9.09.47-5.523 1.785-10.092 4.015-13.963 1.556-2.688 3.316-4.678 5.378-6.064.482-.326 1.024-.579 1.483-.796.325-.145.602-.157.82-.024.216.133.337.398.361.784v5.473c0 6.692 0 13.613.012 20.425 0 .7-.265 1.181-.88 1.543-1.242.724-2.592 1.05-3.99 1.339-2.255.47-4.51.602-6.415.663h-.024zm10.574-29.72a.684.684 0 0 0-.23.06c-.433.194-.94.435-1.398.736-1.99 1.338-3.69 3.255-5.196 5.872-2.183 3.798-3.473 8.283-3.931 13.709-.23 2.652-.133 5.425.277 8.717 1.845-.06 4.015-.193 6.186-.651 1.35-.278 2.652-.591 3.81-1.266.434-.254.59-.53.59-1.025-.012-6.812-.012-13.733-.012-20.425v-5.449c-.012-.254-.072-.29-.072-.302 0 .024-.012.024-.024.024zM41.002 20.738c-1.073-.013-1.905-.869-1.893-1.954a1.927 1.927 0 0 1 1.942-1.917c1.085 0 1.929.88 1.917 1.99-.012 1.073-.88 1.905-1.966 1.88z" fill="#0F9676"/>
    <path d="M41.027 21.055h-.036c-1.242-.012-2.194-1.013-2.182-2.255a2.236 2.236 0 0 1 2.23-2.206h.012c.603 0 1.158.24 1.568.663.422.434.65 1.013.639 1.64 0 1.205-.977 2.158-2.23 2.158zm.012-3.87c-.904 0-1.615.71-1.627 1.615-.012.916.687 1.64 1.591 1.652.928.012 1.652-.687 1.664-1.58 0-.458-.157-.892-.47-1.205a1.564 1.564 0 0 0-1.158-.483c.012 0 .012 0 0 0zM41.075 11.29c1.157 0 1.904.735 1.904 1.856a1.907 1.907 0 0 1-1.929 1.905 1.9 1.9 0 0 1-1.929-1.905c-.012-1.158.736-1.857 1.953-1.857z" fill="#0F9676"/>
    <path d="M41.04 15.352a2.213 2.213 0 0 1-2.231-2.206c0-.627.193-1.157.578-1.531.398-.41.989-.615 1.676-.615.663 0 1.218.217 1.616.615.386.386.59.928.59 1.543 0 1.218-.988 2.194-2.23 2.194zm.035-3.761c-.53 0-.964.157-1.254.446-.265.265-.398.651-.398 1.11 0 .903.712 1.615 1.628 1.615.904 0 1.628-.7 1.628-1.604 0-.458-.145-.844-.41-1.121-.29-.302-.7-.446-1.194-.446z" fill="#0F9676"/>
</svg>
