<svg width="23" height="19" viewBox="0 0 23 19" fill="none" xmlns="http://www.w3.org/2000/svg">
    <path d="M15.45 9.505c0 2.034-1.667 3.678-3.73 3.678-2.061 0-3.728-1.644-3.728-3.678 0-2.033 1.667-3.677 3.729-3.677 2.062 0 3.728 1.644 3.728 3.677z" stroke="#CCC" stroke-width="1.5" stroke-linecap="round" stroke-linejoin="round"/>
    <path d="M11.722 18c3.677 0 7.104-2.137 9.489-5.834.937-1.449.937-3.883 0-5.332C18.826 3.137 15.399 1 11.722 1 8.046 1 4.62 3.137 2.234 6.834c-.937 1.449-.937 3.883 0 5.332C4.62 15.863 8.046 18 11.722 18z" stroke="#CCC" stroke-width="1.5" stroke-linecap="round" stroke-linejoin="round"/>
</svg>
