<svg width="18" height="21" viewBox="0 0 18 21" fill="none" xmlns="http://www.w3.org/2000/svg">
    <path d="M1.286 0H12.21L18 5.768v13.518c0 .71-.576 1.285-1.286 1.285H1.286c-.71 0-1.286-.575-1.286-1.285v-18C0 .576.576 0 1.286 0z" fill="#DB655E"/>
    <path d="M17.982 5.785H13.5c-.71 0-1.286-.576-1.286-1.286V.012l5.767 5.773z" fill="#E10000"/>
    <path d="M13.179 9.748c.215 0 .32-.188.32-.37 0-.188-.11-.37-.32-.37h-1.227c-.24 0-.373.198-.373.418v3.014c0 .269.153.418.36.418.205 0 .359-.15.359-.418v-.827h.742c.23 0 .345-.189.345-.376 0-.183-.115-.365-.345-.365h-.742V9.748h.88zm-4.146-.74h-.898a.397.397 0 0 0-.416.415v3.02c0 .308.249.404.427.404h.941c1.115 0 1.851-.733 1.851-1.866 0-1.197-.693-1.973-1.905-1.973zm.043 3.095h-.547v-2.35h.493c.746 0 1.071.5 1.071 1.191 0 .647-.319 1.159-1.017 1.159zM5.788 9.008H4.9c-.251 0-.391.166-.391.418v3.014c0 .269.16.418.377.418.215 0 .376-.15.376-.418v-.88h.558c.687 0 1.255-.487 1.255-1.271 0-.767-.548-1.281-1.286-1.281zm-.014 1.845H5.26V9.716h.513c.316 0 .517.246.517.569 0 .321-.201.568-.517.568z" fill="#fff"/>
</svg>
