<svg width="15" height="16" viewBox="0 0 15 16" fill="none" xmlns="http://www.w3.org/2000/svg">
    <path fill-rule="evenodd" clip-rule="evenodd" d="M14.686.418a1.087 1.087 0 0 1 0 1.528L1.83 14.909a1.065 1.065 0 0 1-1.515 0 1.087 1.087 0 0 1 0-1.528L13.17.418a1.065 1.065 0 0 1 1.515 0z" fill="#999"/>
    <path fill-rule="evenodd" clip-rule="evenodd" d="M.314.418a1.065 1.065 0 0 1 1.515 0l12.857 12.963a1.087 1.087 0 0 1 0 1.528 1.065 1.065 0 0 1-1.515 0L.314 1.946a1.087 1.087 0 0 1 0-1.528z" fill="#999"/>
</svg>
