<svg width="15" height="15" viewBox="0 0 15 15" fill="none" xmlns="http://www.w3.org/2000/svg">
    <path fill-rule="evenodd" clip-rule="evenodd" d="M14.422.31c.41.415.41 1.087 0 1.501L1.796 14.541a1.046 1.046 0 0 1-1.488 0 1.067 1.067 0 0 1 0-1.5L12.934.31a1.046 1.046 0 0 1 1.488 0z" fill="#fff"/>
    <path fill-rule="evenodd" clip-rule="evenodd" d="M.308.31a1.046 1.046 0 0 1 1.488 0l12.626 12.73c.41.415.41 1.087 0 1.501a1.046 1.046 0 0 1-1.488 0L.308 1.811a1.067 1.067 0 0 1 0-1.5z" fill="#fff"/>
</svg>
