<svg width="80" height="80" viewBox="0 0 80 80" fill="none" xmlns="http://www.w3.org/2000/svg">
    <circle cx="40" cy="40" r="40" fill="#FDEDE5"/>
    <path d="M15 39.429c.305-.819.708-1.551 1.526-1.99a2.984 2.984 0 0 1 3.334.353c.184.147.452.257.684.257 1.551.024 3.09.012 4.665.012.147-.708.293-1.404.452-2.15-.684-.293-1.392-.586-2.076-.903-1.063-.476-1.527-1.502-1.16-2.516a1.924 1.924 0 0 1 2.405-1.196c.416.134.819.33 1.222.488.39.159.769.33 1.148.489.048-.025.085-.025.097-.05.782-1.074.782-1.074-.159-2.026-.94-.94-1.88-1.893-2.845-2.821a1.238 1.238 0 0 0-.66-.318c-1.599-.195-2.784-1.465-2.735-2.967.061-1.588 1.246-2.797 2.87-2.895 1.417-.085 2.82 1.087 2.967 2.553.037.415.196.72.489 1.001 1.184 1.16 2.345 2.345 3.541 3.541.513-.354 1.014-.696 1.527-1.062-.562-1.307-1.136-2.601-1.673-3.908-.428-1.026-.061-2.064.855-2.552 1.038-.55 2.234-.122 2.76 1.026.5 1.123.976 2.259 1.465 3.395.061.146.134.293.208.464.708-.147 1.404-.293 2.149-.44V21.367c0-.671-.037-1.27-.489-1.892-.916-1.234-.55-2.931.66-3.872 1.172-.903 2.894-.781 3.908.294 1.062 1.123 1.086 2.796.06 3.993-.11.122-.22.305-.22.452-.011 1.612-.011 3.224-.011 4.86.708.146 1.404.293 2.149.452.293-.696.586-1.392.904-2.088.366-.819.989-1.283 1.904-1.27 1.295.024 2.223 1.282 1.796 2.515-.281.806-.648 1.588-.99 2.43.44.293.867.599 1.368.94 1.087-1.099 2.162-2.21 3.26-3.297.367-.366.6-.732.672-1.282.171-1.367 1.49-2.442 2.882-2.43 1.441.024 2.675 1.111 2.882 2.503.281 1.869-1.184 3.298-2.662 3.37-.183.013-.366.11-.537.172-.061.024-.098.085-.134.134-1.185 1.185-2.37 2.37-3.59 3.578.305.452.598.892.927 1.356.733-.318 1.454-.647 2.198-.94 1.026-.404 2.064-.025 2.54.89.501.978.135 2.15-.89 2.65-.721.355-1.479.66-2.248.99.147.708.293 1.404.44 2.15H58.669c.672 0 1.27-.037 1.893-.49 1.233-.915 2.93-.549 3.871.66.904 1.172.782 2.882-.293 3.908-1.123 1.062-2.796 1.087-3.993.073a1.088 1.088 0 0 0-.647-.22c-2.064-.012-4.14-.06-6.204.013-1.282.036-2.296-.72-2.32-2.223-.025-2.04-.586-3.92-1.698-5.617-1.844-2.821-4.432-4.519-7.79-4.983-5.325-.732-10.393 2.516-11.968 7.657-1.832 5.984 1.722 12.346 7.827 13.836 3.823.928 7.242.024 10.173-2.638.989-.903 2.064-.903 3.016.05 1.612 1.611 3.212 3.223 4.848 4.823.196.195.513.354.782.378 1.539.183 2.735 1.515 2.662 2.98-.086 1.6-1.282 2.797-2.882 2.882-1.465.073-2.796-1.123-2.98-2.662a1.452 1.452 0 0 0-.354-.757 510.379 510.379 0 0 0-3.614-3.64c-.025-.024-.062-.024-.123-.06-.354.232-.732.488-1.148.769.318.732.636 1.453.929 2.186.451 1.148-.074 2.32-1.21 2.674-.83.257-1.782-.049-2.21-.806-.342-.623-.61-1.294-.903-1.941-.074-.16-.135-.33-.22-.513-.72.146-1.404.293-2.15.44v2.759c0 .379.013.745 0 1.123-.024.672.074 1.234.501 1.845 1.1 1.587.306 3.7-1.514 4.322-.122.037-.232.098-.342.147h-1.172c-.098-.049-.196-.098-.306-.134-1.856-.623-2.674-2.748-1.55-4.335.44-.636.488-1.222.488-1.893v-3.835c-.745-.159-1.429-.293-2.15-.452-.072.184-.146.342-.22.501-.292.647-.56 1.319-.903 1.942-.427.757-1.367 1.074-2.198.818-1.123-.354-1.673-1.527-1.209-2.662.293-.733.623-1.454.94-2.198-.464-.318-.903-.611-1.318-.904-.074.037-.098.049-.123.073-1.209 1.21-2.405 2.418-3.626 3.615-.293.293-.452.586-.501 1.001-.147 1.441-1.478 2.59-2.919 2.553-1.587-.037-2.845-1.295-2.918-2.895-.061-1.477 1.135-2.796 2.674-2.967.183-.025.415-.037.537-.159a631.334 631.334 0 0 0 4.067-4.042c-.318-.464-.623-.904-.928-1.355-1.282.55-2.516 1.11-3.786 1.611-.378.147-.818.245-1.221.208-.855-.073-1.539-.77-1.66-1.55-.147-.917.231-1.735 1.086-2.138 1.1-.513 2.235-.977 3.346-1.453.22-.098.427-.208.635-.305-.146-.733-.293-1.405-.44-2.113a4.743 4.743 0 0 0-.427-.024c-1.416 0-2.833-.013-4.25.012-.232 0-.5.11-.684.256a3.001 3.001 0 0 1-3.333.354c-.819-.44-1.222-1.172-1.527-1.99C15 40.21 15 39.82 15 39.429z" fill="#FF8329"/>
    <path d="M38.252 40.188a2.927 2.927 0 0 1-2.918 2.955 2.927 2.927 0 0 1-2.943-2.93 2.924 2.924 0 0 1 2.894-2.932 2.927 2.927 0 0 1 2.967 2.907zM59.476 47.658c-.012 1.307-1.319 2.284-2.54 1.808-1.111-.428-2.198-.953-3.26-1.514-.88-.465-1.16-1.551-.757-2.455.403-.904 1.453-1.404 2.393-1.026 1.111.44 2.198.965 3.26 1.527.636.317.904.928.904 1.66zM42.71 38.158a2.46 2.46 0 0 1-2.468-2.43c-.012-1.331 1.1-2.442 2.443-2.455 1.343 0 2.454 1.087 2.466 2.43.013 1.332-1.099 2.455-2.442 2.455zM44.04 45.095a1.934 1.934 0 0 1-1.977-1.917c-.013-1.111.842-1.99 1.953-1.99 1.087 0 1.942.854 1.954 1.941a1.942 1.942 0 0 1-1.93 1.966z" fill="#FF8329"/>
</svg>
