<svg width="99" height="85" viewBox="0 0 99 85" fill="none" xmlns="http://www.w3.org/2000/svg">
<path d="M98.4333 2.97527V118.715L79.1587 137.99H2.96602C2.17853 137.987 1.42414 137.673 0.868164 137.115C0.31219 136.557 -3.79753e-06 135.802 0 135.014V2.97527C-3.79753e-06 2.18778 0.31219 1.4324 0.868164 0.874692C1.42414 0.316986 2.17853 0.00244563 2.96602 0H95.458C96.2471 0 97.0039 0.313464 97.5618 0.871435C98.1198 1.42941 98.4333 2.18618 98.4333 2.97527Z" fill="#018699"/>
<path opacity="0.6" d="M98.4333 8.03906V118.725L79.1587 137.999H2.96602C2.17853 137.997 1.42414 137.682 0.868164 137.124C0.31219 136.567 -3.79753e-06 135.811 0 135.024V8.03906H98.4333Z" fill="white"/>
<path d="M23.4617 17.4554H7.06999C6.82493 17.4554 6.58991 17.3581 6.41663 17.1848C6.24334 17.0115 6.146 16.7765 6.146 16.5314C6.146 16.2864 6.24334 16.0513 6.41663 15.8781C6.58991 15.7048 6.82493 15.6074 7.06999 15.6074H23.4617C23.7067 15.6074 23.9418 15.7048 24.115 15.8781C24.2883 16.0513 24.3857 16.2864 24.3857 16.5314C24.3857 16.7765 24.2883 17.0115 24.115 17.1848C23.9418 17.3581 23.7067 17.4554 23.4617 17.4554Z" fill="#018699"/>
<path d="M31.2229 22.5003H7.10661C6.86155 22.5003 6.62653 22.403 6.45325 22.2297C6.27997 22.0564 6.18262 21.8214 6.18262 21.5763C6.18262 21.3313 6.27997 21.0963 6.45325 20.923C6.62653 20.7497 6.86155 20.6523 7.10661 20.6523H31.2229C31.468 20.6523 31.703 20.7497 31.8763 20.923C32.0496 21.0963 32.1469 21.3313 32.1469 21.5763C32.1469 21.8214 32.0496 22.0564 31.8763 22.2297C31.703 22.403 31.468 22.5003 31.2229 22.5003Z" fill="#018699"/>
<path d="M23.7278 27.5472H7.09587C6.85081 27.5472 6.61579 27.4499 6.44251 27.2766C6.26922 27.1033 6.17188 26.8683 6.17188 26.6232C6.17188 26.3782 6.26922 26.1431 6.44251 25.9699C6.61579 25.7966 6.85081 25.6992 7.09587 25.6992H23.7278C23.9729 25.6992 24.2079 25.7966 24.3812 25.9699C24.5544 26.1431 24.6518 26.3782 24.6518 26.6232C24.6518 26.8683 24.5544 27.1033 24.3812 27.2766C24.2079 27.4499 23.9729 27.5472 23.7278 27.5472Z" fill="#018699"/>
<path d="M85.8111 17.4554H73.1247C72.8796 17.4554 72.6446 17.3581 72.4713 17.1848C72.298 17.0115 72.2007 16.7765 72.2007 16.5314C72.2007 16.2864 72.298 16.0513 72.4713 15.8781C72.6446 15.7048 72.8796 15.6074 73.1247 15.6074H85.8111C86.0562 15.6074 86.2912 15.7048 86.4645 15.8781C86.6378 16.0513 86.7351 16.2864 86.7351 16.5314C86.7351 16.7765 86.6378 17.0115 86.4645 17.1848C86.2912 17.3581 86.0562 17.4554 85.8111 17.4554Z" fill="#018699"/>
<path d="M85.8126 22.5003H79.2707C79.0256 22.5003 78.7906 22.403 78.6173 22.2297C78.444 22.0564 78.3467 21.8214 78.3467 21.5763C78.3467 21.3313 78.444 21.0963 78.6173 20.923C78.7906 20.7497 79.0256 20.6523 79.2707 20.6523H85.8311C86.0761 20.6523 86.3111 20.7497 86.4844 20.923C86.6577 21.0963 86.755 21.3313 86.755 21.5763C86.755 21.8214 86.6577 22.0564 86.4844 22.2297C86.3111 22.403 86.0761 22.5003 85.8311 22.5003H85.8126Z" fill="#018699"/>
<path d="M85.8127 40.9124H18.361C18.1159 40.9124 17.8809 40.8151 17.7076 40.6418C17.5344 40.4685 17.437 40.2335 17.437 39.9884C17.437 39.7434 17.5344 39.5084 17.7076 39.3351C17.8809 39.1618 18.1159 39.0645 18.361 39.0645H85.8127C86.0578 39.0645 86.2928 39.1618 86.4661 39.3351C86.6394 39.5084 86.7367 39.7434 86.7367 39.9884C86.7367 40.2335 86.6394 40.4685 86.4661 40.6418C86.2928 40.8151 86.0578 40.9124 85.8127 40.9124Z" fill="#018699"/>
<path d="M85.8129 45.9593H7.06999C6.82493 45.9593 6.58991 45.862 6.41663 45.6887C6.24334 45.5154 6.146 45.2804 6.146 45.0353C6.146 44.7903 6.24334 44.5552 6.41663 44.382C6.58991 44.2087 6.82493 44.1113 7.06999 44.1113H85.8129C86.058 44.1113 86.293 44.2087 86.4663 44.382C86.6396 44.5552 86.7369 44.7903 86.7369 45.0353C86.7369 45.2804 86.6396 45.5154 86.4663 45.6887C86.293 45.862 86.058 45.9593 85.8129 45.9593Z" fill="#018699"/>
<path d="M39.6131 51.0042H7.06999C6.82493 51.0042 6.58991 50.9069 6.41663 50.7336C6.24334 50.5603 6.146 50.3253 6.146 50.0802C6.146 49.8352 6.24334 49.6002 6.41663 49.4269C6.58991 49.2536 6.82493 49.1562 7.06999 49.1562H39.6131C39.8582 49.1562 40.0932 49.2536 40.2665 49.4269C40.4398 49.6002 40.5371 49.8352 40.5371 50.0802C40.5371 50.3253 40.4398 50.5603 40.2665 50.7336C40.0932 50.9069 39.8582 51.0042 39.6131 51.0042Z" fill="#018699"/>
<path opacity="0.7" d="M51.1601 57.7012H20.1323V66.0171H51.1601V57.7012Z" fill="#018699"/>
<path opacity="0.3" d="M34.1863 67.8672H20.1323V98.5716H34.1863V67.8672Z" fill="#018699"/>
<path opacity="0.3" d="M69.1422 67.8672H53V98.5716H69.1422V67.8672Z" fill="#018699"/>
<path opacity="0.7" d="M85.8111 57.7012H53V66.0171H85.8111V57.7012Z" fill="#018699"/>
<path opacity="0.3" d="M85.8189 67.8672H70.998V98.5716H85.8189V67.8672Z" fill="#018699"/>
<path opacity="0.5" d="M18.2876 67.8672H7.07031V98.5716H18.2876V67.8672Z" fill="#018699"/>
<path d="M18.2876 57.7012H7.07031V66.0171H18.2876V57.7012Z" fill="#018699"/>
<path opacity="0.3" d="M51.1527 67.8672H36.0361V98.5716H51.1527V67.8672Z" fill="#018699"/>
</svg>
