<svg width="80" height="80" viewBox="0 0 80 80" fill="none" xmlns="http://www.w3.org/2000/svg">
    <circle cx="40" cy="40" r="40" fill="#EAF2FF"/>
    <path d="M41.055 64.462h-2.111c-.079-.026-.144-.078-.222-.078-3.363-.469-5.865-2.216-7.547-5.161-.287-.509-.495-1.056-.769-1.617-.143.105-.26.196-.378.3-2.92 2.372-6.256 3.624-10.01 3.689-2.62.039-4.51-1.838-4.51-4.445V42.943c0-1.877.326-3.702.977-5.462 2.294-6.204 8.381-10.401 14.99-10.323.873.013 1.694.235 2.36.782.56.456 1.016 1.017 1.55 1.577.235-.065.313-.3.313-.625-.013-4.276-.013-8.551-.013-12.813v-.548h8.616V28.866c0 .338.039.599.43.69.026-.039.078-.091.104-.143.913-1.525 2.255-2.281 4.04-2.242 3.664.078 6.935 1.251 9.777 3.558 2.554 2.073 4.327 4.693 5.227 7.873.286 1.017.43 2.073.625 3.115v16.267c-.026.052-.065.105-.078.17-.547 2.216-2.19 3.506-4.458 3.467-3.636-.065-6.882-1.238-9.737-3.48-.208-.17-.417-.326-.651-.509-.065.144-.117.248-.157.34-1.12 2.88-3.128 4.861-6.022 5.93-.756.248-1.564.365-2.346.56zm-2.49-46.102v.56c0 3.793 0 7.586.014 11.38 0 .312-.092.508-.352.703-2.633 1.955-5.253 3.937-7.886 5.905-.886.664-1.773 1.33-2.685 2.007a209.863 209.863 0 0 0-1.72-2.294c.156-.117.273-.222.39-.313 2.047-1.538 4.093-3.09 6.166-4.614.339-.248.352-.482.208-.808-.274-.574-.743-.887-1.368-.873-2.216.052-4.34.52-6.257 1.642-4.301 2.515-6.582 6.295-6.674 11.275-.09 4.731-.026 9.476-.013 14.207 0 .13.013.26.04.378.156.717.73 1.2 1.472 1.173.496-.013.991-.026 1.473-.104 3.324-.47 6.14-1.903 8.355-4.47.13-.157.235-.379.248-.587.235-2.216 1.056-4.172 2.542-5.853.117-.143.208-.365.221-.547.052-1.356.066-2.712.105-4.067v-.86c-.626.456-1.174.86-1.734 1.277-.587-.782-1.147-1.538-1.707-2.281.052-.065.09-.104.117-.13 3.415-2.568 6.83-5.123 10.245-7.704.248-.182.39-.078.573.052 3.324 2.503 6.648 4.993 9.985 7.495.104.078.208.183.313.274-.587.782-1.148 1.525-1.721 2.281-.573-.43-1.121-.821-1.63-1.2 0 1.682 0 3.338.014 4.993 0 .13.091.274.182.365 1.525 1.708 2.372 3.715 2.581 5.983.013.13.065.287.143.378a12.689 12.689 0 0 0 3.376 2.854c1.89 1.095 3.937 1.669 6.113 1.799 1.317.078 1.943-.443 1.943-1.773 0-4.562.013-9.124-.013-13.686 0-.86-.066-1.72-.222-2.568-1.108-6.126-6.439-10.597-12.67-10.649-.703-.013-1.264.391-1.46 1.004-.09.26-.051.417.196.6 1.238.899 2.464 1.811 3.689 2.737 1.004.743 2.007 1.499 3.037 2.255-.587.795-1.147 1.538-1.72 2.307-.144-.104-.261-.183-.379-.274-3.389-2.515-6.777-5.044-10.166-7.547-.34-.248-.483-.495-.483-.938.013-3.767.013-7.521.013-11.288v-.534c-.99.078-1.916.078-2.893.078zm8.616 36.066c.014-3.91-3.206-7.143-7.142-7.182-3.91-.04-7.195 3.233-7.209 7.169-.012 3.91 3.207 7.143 7.143 7.182 3.91.039 7.195-3.233 7.208-7.17zm-2.867-9.098c0-1.72 0-3.376-.013-5.031 0-.144-.13-.313-.26-.404-1.24-.952-2.49-1.877-3.742-2.816-.208-.156-.352-.195-.586-.026-1.252.952-2.516 1.89-3.78 2.842-.118.09-.235.247-.248.364-.013 1.669-.013 3.337-.013 5.058 2.894-1.264 5.735-1.264 8.642.013z" fill="#337DF7"/>
    <path d="M41.121 64.987h-2.268l-.091-.04c-.04-.012-.065-.025-.105-.038-.013 0-.013-.013-.026-.013-3.48-.496-6.139-2.32-7.898-5.41-.196-.338-.352-.703-.509-1.055-2.985 2.385-6.413 3.623-10.193 3.688-1.394.026-2.685-.456-3.597-1.368-.926-.913-1.434-2.19-1.434-3.598V42.96c0-1.93.339-3.82 1.017-5.644 1.16-3.141 3.258-5.826 6.074-7.769 2.815-1.929 6.06-2.945 9.424-2.906 1.055.013 1.968.313 2.685.9.365.299.69.65 1.016.99-.013-3.285 0-6.635 0-9.867V15h9.659v13.491c.99-1.265 2.346-1.89 4.054-1.851 3.793.078 7.181 1.316 10.088 3.675 2.66 2.151 4.484 4.888 5.396 8.134.209.73.34 1.473.457 2.19.052.325.117.651.182.977l.013.052v16.424l-.052.117-.04.078v.013c-.612 2.45-2.476 3.872-4.965 3.832-3.728-.065-7.104-1.277-10.05-3.597l-.117-.091c-1.2 2.867-3.285 4.861-6.204 5.943-.548.209-1.121.326-1.669.444-.234.052-.495.104-.73.169l-.117-.013zm-2.06-1.043h1.93c.234-.052.469-.104.69-.156.535-.117 1.043-.235 1.526-.404 2.724-1.004 4.653-2.907 5.722-5.631.026-.078.065-.144.104-.235.013-.039.039-.078.065-.13l.274-.613 1.173.926c2.763 2.176 5.93 3.31 9.424 3.376 2.007.039 3.44-1.082 3.936-3.063a.51.51 0 0 1 .065-.17V41.747c-.065-.313-.117-.64-.17-.939-.13-.73-.247-1.408-.442-2.085-.86-3.037-2.568-5.592-5.058-7.613-2.724-2.202-5.904-3.362-9.45-3.44-1.59-.04-2.763.612-3.571 1.98a.814.814 0 0 1-.117.157l-.026.026-.209.274-.339-.078c-.821-.209-.821-.926-.821-1.2V16.017h-7.573v2.62c0 3.35 0 6.818.013 10.22 0 .769-.378 1.03-.69 1.12l-.3.092-.222-.222c-.17-.182-.34-.352-.495-.521-.34-.365-.665-.717-1.017-1.004-.535-.43-1.212-.652-2.034-.665-3.14-.039-6.178.9-8.81 2.712-2.634 1.811-4.602 4.327-5.684 7.273a15.295 15.295 0 0 0-.951 5.279V57.114c0 1.134.404 2.138 1.12 2.855.718.704 1.734 1.095 2.855 1.069 3.61-.066 6.87-1.265 9.698-3.572.078-.065.17-.13.26-.208l.64-.496.273.587c.091.182.17.365.247.547.157.365.313.717.496 1.03 1.63 2.841 3.962 4.445 7.169 4.9.143.053.234.092.3.118zm.978-1.825h-.078c-4.236-.039-7.664-3.493-7.651-7.703 0-2.046.834-3.988 2.32-5.461 1.473-1.46 3.389-2.242 5.422-2.23 4.236.04 7.664 3.494 7.651 7.704 0 2.046-.834 3.989-2.32 5.462-1.46 1.433-3.35 2.228-5.344 2.228zm-.065-14.35c-1.72 0-3.363.677-4.614 1.929a6.634 6.634 0 0 0-2.008 4.718c-.013 3.637 2.96 6.622 6.622 6.66h.065c1.72 0 3.363-.677 4.614-1.928a6.635 6.635 0 0 0 2.008-4.719c.013-3.637-2.96-6.621-6.622-6.66h-.065zm-20.125 11.47c-.965 0-1.734-.639-1.942-1.59a2.062 2.062 0 0 1-.052-.496c0-1.42-.014-2.854-.014-4.249-.013-3.272-.026-6.648.027-9.971.09-5.149 2.424-9.085 6.934-11.718 1.864-1.082 4.054-1.669 6.504-1.72.821-.027 1.486.403 1.85 1.172.34.717-.012 1.186-.364 1.447-1.59 1.16-3.18 2.372-4.732 3.533-.469.351-.938.703-1.42 1.068l1.108 1.473.417-.313c.625-.469 1.238-.925 1.85-1.381l1.956-1.473c1.942-1.46 3.95-2.959 5.93-4.432.13-.091.144-.13.144-.287-.013-3.024-.013-6.087-.013-9.058v-3.416h3.91v3.637c0 2.855 0 5.8-.013 8.707 0 .248.052.352.274.508a3098.12 3098.12 0 0 1 7.807 5.8l2.308 1.721 1.107-1.486-.508-.378c-.704-.521-1.408-1.056-2.111-1.577l-.822-.612c-.938-.704-1.903-1.421-2.867-2.112-.417-.3-.535-.69-.378-1.186.274-.834 1.043-1.382 1.968-1.369 6.478.065 12.018 4.719 13.178 11.08.143.82.221 1.707.234 2.658.013 3.468.013 7 .013 10.402v3.285c0 .795-.195 1.381-.612 1.772-.43.404-1.043.574-1.877.522-2.307-.13-4.445-.756-6.348-1.864a13.3 13.3 0 0 1-3.52-2.972 1.258 1.258 0 0 1-.26-.665c-.208-2.177-1.03-4.093-2.45-5.696-.092-.104-.3-.378-.313-.717-.013-1.316-.013-2.672-.013-3.975v-2.047l2.046 1.512 1.108-1.473C48.16 40 46.44 38.71 44.705 37.406l-4.718-3.532s-.013 0-.013-.013c-2.568 1.942-5.188 3.91-7.73 5.813l-2.176 1.63 1.108 1.472 2.137-1.59v1.903l-.013.73-.078 3.337a1.443 1.443 0 0 1-.352.873c-1.394 1.577-2.19 3.402-2.411 5.566-.04.313-.17.639-.378.86-2.216 2.581-5.136 4.145-8.668 4.64-.482.066-.965.092-1.538.105.013.039 0 .039-.026.039zM31.37 30.55h-.026c-2.307.052-4.275.56-6.009 1.577-4.17 2.438-6.334 6.087-6.413 10.845-.065 3.31-.052 6.686-.026 9.945 0 1.395.013 2.829.013 4.25 0 .09.013.182.026.273.105.482.47.782.952.77.534-.014.977-.027 1.42-.092 3.272-.456 5.983-1.903 8.03-4.288a.623.623 0 0 0 .13-.3c.248-2.36 1.147-4.419 2.672-6.153a.662.662 0 0 0 .091-.221 144.6 144.6 0 0 0 .079-3.324l.013-.547-1.304.964-2.28-3.05.3-.313.038-.039c.04-.039.078-.091.143-.143l2.451-1.838c2.555-1.916 5.2-3.897 7.795-5.852.56-.43 1.003-.092 1.199.052l4.718 3.532c1.76 1.316 3.506 2.633 5.266 3.95.091.065.17.143.248.208.026.026.065.052.091.091l.365.313-2.32 3.076-1.212-.9c0 1.291 0 2.62.013 3.911.013.013.026.04.039.065 1.577 1.773 2.49 3.885 2.71 6.283 0 .052.027.091.027.104a12.114 12.114 0 0 0 3.233 2.737c1.785 1.03 3.701 1.604 5.891 1.72.535.027.913-.051 1.108-.234.196-.182.287-.521.287-1.003v-3.285c0-3.402 0-6.934-.013-10.401 0-.887-.078-1.721-.209-2.477-1.069-5.865-6.178-10.167-12.16-10.232h-.014c-.456 0-.821.248-.951.652v.013c.964.704 1.929 1.42 2.867 2.124l.821.613c.704.521 1.408 1.043 2.112 1.577l1.342 1.004-2.333 3.141-.547-.391c-.091-.065-.17-.117-.248-.182l-2.36-1.76c-2.58-1.89-5.226-3.858-7.833-5.774-.482-.352-.69-.77-.69-1.356.012-2.894.012-5.852.012-8.694v-2.594h-1.824v2.373c0 2.971 0 6.035.013 9.058 0 .483-.17.835-.56 1.121a1421.733 1421.733 0 0 0-5.931 4.432l-1.956 1.473c-.612.456-1.225.925-1.85 1.382l-1.252.925-2.333-3.115.391-.313c.052-.039.091-.078.143-.117.092-.078.183-.144.274-.222.47-.352.952-.717 1.42-1.069 1.552-1.16 3.155-2.372 4.745-3.545.04-.026.066-.052.079-.065a.226.226 0 0 0-.04-.091c-.195-.391-.482-.574-.873-.574zm13.465 15.576-.73-.326c-2.764-1.212-5.436-1.212-8.186 0l-.73.326v-1.825c0-1.394 0-2.698.013-4.04 0-.326.235-.613.444-.782.586-.444 1.186-.887 1.772-1.343.652-.495 1.343-1.004 1.995-1.512.39-.3.795-.287 1.212.013l1.76 1.33c.651.482 1.316.99 1.967 1.486.209.156.457.469.457.82.013 1.317.013 2.608.013 3.963l.013 1.89zM40 43.846c1.264 0 2.516.234 3.793.703v-.3c0-1.342 0-2.607-.013-3.897l-.052-.052c-.652-.495-1.317-1.004-1.968-1.486-.587-.443-1.173-.873-1.76-1.317-.652.496-1.316 1.004-1.968 1.486-.587.444-1.186.887-1.773 1.33a7.207 7.207 0 0 1-.039.039c-.013 1.303-.013 2.594-.013 3.95v.247c1.277-.47 2.542-.704 3.793-.704z" fill="#337DF7"/>
    <path d="m41.748 50.484 2.125 2.125c-.6.573-1.226 1.147-1.903 1.786.703.651 1.316 1.225 1.903 1.76-.73.73-1.395 1.381-2.073 2.046a485.24 485.24 0 0 0-1.746-1.825c-.678.717-1.252 1.343-1.812 1.929-.73-.73-1.395-1.395-2.073-2.086.574-.56 1.187-1.133 1.825-1.76-.678-.638-1.29-1.237-1.877-1.798.743-.743 1.395-1.408 2.06-2.06.547.561 1.134 1.16 1.76 1.8.638-.678 1.224-1.291 1.811-1.917z" fill="#337DF7"/>
    <path d="m38.253 59.06-2.842-2.842 1.812-1.747-1.864-1.786 2.816-2.815 1.746 1.786 1.812-1.93 2.88 2.881-1.876 1.773 1.89 1.746-2.842 2.803-1.733-1.799-1.799 1.93zm-1.343-2.816 1.317 1.33 1.812-1.956 1.76 1.838 1.316-1.303-1.903-1.76 1.916-1.799-1.369-1.369-1.812 1.943-1.772-1.8-1.317 1.317 1.877 1.8-1.825 1.759z" fill="#337DF7"/>
</svg>
