<svg width="75" height="73" viewBox="0 0 75 73" fill="none" xmlns="http://www.w3.org/2000/svg">
    <g filter="url(#69op0cmdva)">
        <ellipse cx="37.217" cy="33.407" rx="32.971" ry="32.407" fill="#FEFCFE"/>
    </g>
    <ellipse cx="37.217" cy="33.404" rx="22.826" ry="22.436" fill="#FDEDE5"/>
    <path d="m47.54 42.993-6.025-5.91a8.591 8.591 0 0 0 1.886-5.373 8.666 8.666 0 0 0-1.504-4.874 8.893 8.893 0 0 0-4.006-3.23 9.069 9.069 0 0 0-5.156-.5 8.973 8.973 0 0 0-4.57 2.4 8.727 8.727 0 0 0-2.443 4.492 8.632 8.632 0 0 0 .508 5.069 8.806 8.806 0 0 0 3.287 3.937 9.036 9.036 0 0 0 4.959 1.478 8.934 8.934 0 0 0 5.466-1.853l6.013 5.921a1.118 1.118 0 0 0 .793.325 1.132 1.132 0 0 0 1.036-.682 1.079 1.079 0 0 0-.244-1.2zM27.782 31.71a6.5 6.5 0 0 1 1.128-3.655 6.67 6.67 0 0 1 3.004-2.424 6.801 6.801 0 0 1 3.868-.374 6.73 6.73 0 0 1 3.427 1.8 6.545 6.545 0 0 1 1.832 3.37 6.475 6.475 0 0 1-.381 3.8 6.605 6.605 0 0 1-2.465 2.953 6.777 6.777 0 0 1-3.72 1.11 6.753 6.753 0 0 1-4.732-1.928 6.523 6.523 0 0 1-1.961-4.652z" fill="#FF8329" stroke="#FF8329" stroke-width=".3"/>
    <defs>
        <filter id="69op0cmdva" x=".246" y="0" width="73.941" height="72.813" filterUnits="userSpaceOnUse" color-interpolation-filters="sRGB">
            <feFlood flood-opacity="0" result="BackgroundImageFix"/>
            <feColorMatrix in="SourceAlpha" values="0 0 0 0 0 0 0 0 0 0 0 0 0 0 0 0 0 0 127 0" result="hardAlpha"/>
            <feOffset dy="3"/>
            <feGaussianBlur stdDeviation="2"/>
            <feComposite in2="hardAlpha" operator="out"/>
            <feColorMatrix values="0 0 0 0 0.976471 0 0 0 0 0.737255 0 0 0 0 0.576471 0 0 0 0.46 0"/>
            <feBlend in2="BackgroundImageFix" result="effect1_dropShadow_755_65873"/>
            <feBlend in="SourceGraphic" in2="effect1_dropShadow_755_65873" result="shape"/>
        </filter>
    </defs>
</svg>
