<svg width="57" height="57" viewBox="0 0 57 57" fill="none" xmlns="http://www.w3.org/2000/svg">
    <circle cx="28.5" cy="28.5" r="28.5" fill="#FDEDE5"/>
    <path d="M44.62 38.904a3.875 3.875 0 0 0 0-3.913L32.389 13.806A3.875 3.875 0 0 0 29 11.85a3.875 3.875 0 0 0-3.389 1.956l-12.23 21.185.13.075-.13-.075a3.875 3.875 0 0 0 0 3.913 3.875 3.875 0 0 0 3.388 1.956H41.23a3.875 3.875 0 0 0 3.389-1.956zm-17.125-24.01a1.719 1.719 0 0 1 1.505-.87c.629 0 1.19.325 1.505.87l.13-.075-.13.075 12.231 21.185a1.719 1.719 0 0 1 0 1.738 1.719 1.719 0 0 1-1.505.869H16.77c-.63 0-1.19-.324-1.505-.87a1.719 1.719 0 0 1 0-1.737l12.23-21.185z" fill="#FF8329" stroke="#FF8329" stroke-width=".3"/>
    <path d="M30.087 21.36v-.15h-2.175v9.673h2.175V21.36zM29 32.452c-.772 0-1.4.627-1.4 1.4 0 .772.628 1.4 1.4 1.4.772 0 1.4-.629 1.4-1.4 0-.773-.628-1.4-1.4-1.4z" fill="#FF8329" stroke="#FF8329" stroke-width=".3"/>
</svg>
